0
SECTION
2
HEADER
9
$INSUNITS
70
4
9
$ACADVER
1
AC1014
9
$HANDSEED
5
FFFF
0
ENDSEC
0
SECTION
2
TABLES
0
TABLE
2
VPORT
5
8
100
AcDbSymbolTable
0
ENDTAB
0
TABLE
2
LTYPE
5
5
100
AcDbSymbolTable
0
LTYPE
5
14
100
AcDbSymbolTableRecord
100
AcDbLinetypeTableRecord
2
BYBLOCK
70
0
0
LTYPE
5
15
100
AcDbSymbolTableRecord
100
AcDbLinetypeTableRecord
2
BYLAYER
70
0
0
ENDTAB
0
TABLE
2
LAYER
5
2
100
AcDbSymbolTable
70
2
0
LAYER
5
50
100
AcDbSymbolTableRecord
100
AcDbLayerTableRecord
2
0
70
0
6
CONTINUOUS
0
ENDTAB
0
TABLE
2
STYLE
5
3
100
AcDbSymbolTable
70
1
0
STYLE
5
11
100
AcDbSymbolTableRecord
100
AcDbTextStyleTableRecord
2
STANDARD
70
0
0
ENDTAB
0
TABLE
2
VIEW
5
6
100
AcDbSymbolTable
70
0
0
ENDTAB
0
TABLE
2
UCS
5
7
100
AcDbSymbolTable
70
0
0
ENDTAB
0
TABLE
2
APPID
5
9
100
AcDbSymbolTable
70
2
0
APPID
5
12
100
AcDbSymbolTableRecord
100
AcDbRegAppTableRecord
2
ACAD
70
0
0
ENDTAB
0
TABLE
2
DIMSTYLE
5
A
100
AcDbSymbolTable
70
1
0
ENDTAB
0
TABLE
2
BLOCK_RECORD
5
1
100
AcDbSymbolTable
70
1
0
BLOCK_RECORD
5
1F
100
AcDbSymbolTableRecord
100
AcDbBlockTableRecord
2
*MODEL_SPACE
0
BLOCK_RECORD
5
1B
100
AcDbSymbolTableRecord
100
AcDbBlockTableRecord
2
*PAPER_SPACE
0
ENDTAB
0
ENDSEC
0
SECTION
2
BLOCKS
0
BLOCK
5
20
100
AcDbEntity
100
AcDbBlockBegin
2
*MODEL_SPACE
0
ENDBLK
5
21
100
AcDbEntity
100
AcDbBlockEnd
0
BLOCK
5
1C
100
AcDbEntity
100
AcDbBlockBegin
2
*PAPER_SPACE
0
ENDBLK
5
1D
100
AcDbEntity
100
AcDbBlockEnd
0
ENDSEC
0
SECTION
2
ENTITIES
0
LWPOLYLINE
5
100
100
AcDbEntity
8
0
100
AcDbPolyline
90
39
70
1
43
0.0
10
96.599999999997564
20
4.8999999999999986
10
123.09999999999758
20
4.9000000000000092
42
-0.41421356237308493
10
123.59999999999756
20
4.4000000000000012
10
123.59999999999756
20
-4.8999999999999986
42
-0.41421356237308432
10
123.09999999999758
20
-5.3999999999999986
10
96.599999999997564
20
-5.4000000000000004
10
96.599999999997564
20
-6.1885621722338557
42
0.18267581368160057
10
96.724999999997564
20
-6.519281086116929
42
-0.9392205338844557
10
96.019281086114489
20
-7.225000000000005
42
0.18267581368159774
10
95.688562172231428
20
-7.1000000000000032
10
92.09999999999755
20
-7.1000000000000032
42
0.41421356237309503
10
91.599999999997564
20
-7.6000000000000032
10
91.599999999997564
20
-9.2999999999999972
42
0.41421356237309503
10
92.09999999999755
20
-9.7999999999999972
10
134.00000000001262
20
-9.8000000000000007
10
134.00000000001262
20
-13.899999999999999
42
0.41421356237309503
10
134.50000000001262
20
-14.399999999999999
10
145.50000000001262
20
-14.399999999999999
42
0.41421356237309503
10
146.00000000001262
20
-13.899999999999999
10
146.00000000001262
20
-10.300000000000002
10
140.50000000001259
20
-10.300000000000001
10
140.50000000001262
20
4.440892098500627e-15
10
142.50000000001262
20
-2.7755575615628914e-16
42
0.41421356237309481
10
143.00000000001262
20
0.49999999999999933
10
143.00000000001262
20
9.5
10
146.00000000001262
20
9.5
10
146.00000000001262
20
13.899999999999999
42
0.41421356237309503
10
145.50000000001262
20
14.399999999999999
10
134.50000000001262
20
14.399999999999999
42
0.4142135623730937
10
134.00000000001262
20
13.900000000000004
10
134.00000000001259
20
9.2999999999999989
10
92.09999999999755
20
9.2999999999999901
42
0.41421356237309503
10
91.599999999997564
20
8.7999999999999901
10
91.599999999997564
20
7.1000000000000068
42
0.41421356237309503
10
92.09999999999755
20
6.6000000000000059
10
95.688562172231457
20
6.6000000000000059
42
0.18267581368159735
10
96.019281086114532
20
6.7250000000000112
42
-0.93922053388446314
10
96.724999999997593
20
6.0192810861169228
42
0.18267581368160554
10
96.599999999997578
20
5.6885621722338486
0
LWPOLYLINE
5
101
100
AcDbEntity
8
0
100
AcDbPolyline
90
6
70
1
43
0.0
10
138.00000000001262
20
7.5
10
138.00000000001262
20
1.4999999999999991
10
133.50000000001262
20
1.4999999999999958
42
-0.41421356237309503
10
132.00000000001262
20
2.9999999999999991
10
132.00000000001262
20
6
42
-0.41421356237309503
10
133.50000000001262
20
7.5
0
CIRCLE
5
102
100
AcDbEntity
8
0
100
AcDbCircle
10
128.00000000001259
20
4.5
30
1.7763568394002505e-14
40
1.2499999999999998
210
-4.4822215105176982e-87
220
-6.8422776578360209e-49
230
1
0
ENDSEC
0
SECTION
2
OBJECTS
0
DICTIONARY
5
C
100
AcDbDictionary
3
ACAD_GROUP
350
D
3
ACAD_MLINESTYLE
350
17
0
DICTIONARY
5
D
100
AcDbDictionary
0
DICTIONARY
5
1A
330
C
100
AcDbDictionary
0
DICTIONARY
5
17
100
AcDbDictionary
0
ENDSEC
0
EOF
