0
SECTION
2
HEADER
9
$INSUNITS
70
4
9
$ACADVER
1
AC1014
9
$HANDSEED
5
FFFF
0
ENDSEC
0
SECTION
2
TABLES
0
TABLE
2
VPORT
5
8
100
AcDbSymbolTable
0
ENDTAB
0
TABLE
2
LTYPE
5
5
100
AcDbSymbolTable
0
LTYPE
5
14
100
AcDbSymbolTableRecord
100
AcDbLinetypeTableRecord
2
BYBLOCK
70
0
0
LTYPE
5
15
100
AcDbSymbolTableRecord
100
AcDbLinetypeTableRecord
2
BYLAYER
70
0
0
ENDTAB
0
TABLE
2
LAYER
5
2
100
AcDbSymbolTable
70
2
0
LAYER
5
50
100
AcDbSymbolTableRecord
100
AcDbLayerTableRecord
2
0
70
0
6
CONTINUOUS
0
ENDTAB
0
TABLE
2
STYLE
5
3
100
AcDbSymbolTable
70
1
0
STYLE
5
11
100
AcDbSymbolTableRecord
100
AcDbTextStyleTableRecord
2
STANDARD
70
0
0
ENDTAB
0
TABLE
2
VIEW
5
6
100
AcDbSymbolTable
70
0
0
ENDTAB
0
TABLE
2
UCS
5
7
100
AcDbSymbolTable
70
0
0
ENDTAB
0
TABLE
2
APPID
5
9
100
AcDbSymbolTable
70
2
0
APPID
5
12
100
AcDbSymbolTableRecord
100
AcDbRegAppTableRecord
2
ACAD
70
0
0
ENDTAB
0
TABLE
2
DIMSTYLE
5
A
100
AcDbSymbolTable
70
1
0
ENDTAB
0
TABLE
2
BLOCK_RECORD
5
1
100
AcDbSymbolTable
70
1
0
BLOCK_RECORD
5
1F
100
AcDbSymbolTableRecord
100
AcDbBlockTableRecord
2
*MODEL_SPACE
0
BLOCK_RECORD
5
1B
100
AcDbSymbolTableRecord
100
AcDbBlockTableRecord
2
*PAPER_SPACE
0
ENDTAB
0
ENDSEC
0
SECTION
2
BLOCKS
0
BLOCK
5
20
100
AcDbEntity
100
AcDbBlockBegin
2
*MODEL_SPACE
0
ENDBLK
5
21
100
AcDbEntity
100
AcDbBlockEnd
0
BLOCK
5
1C
100
AcDbEntity
100
AcDbBlockBegin
2
*PAPER_SPACE
0
ENDBLK
5
1D
100
AcDbEntity
100
AcDbBlockEnd
0
ENDSEC
0
SECTION
2
ENTITIES
0
LWPOLYLINE
5
100
100
AcDbEntity
8
0
100
AcDbPolyline
90
52
70
1
43
0.0
10
-450.65000762939439
20
-10.000000000000009
10
-450.65000762939439
20
9.9999999999999911
10
-452.0885698016283
20
9.9999999999999911
42
0.18267581368160957
10
-452.4192887155113
20
9.8749999999999609
42
-0.93922053388442595
10
-453.12500762939442
20
10.580718913883068
42
0.18267581368159419
10
-453.00000762939447
20
10.911437827766139
10
-453.00000762939447
20
12.499999999999991
42
0.41421356237309503
10
-453.50000762939442
20
12.999999999999991
10
-459.50000762939442
20
12.999999999999991
42
0.41421356237309503
10
-460.00000762939442
20
12.499999999999991
10
-460.00000762939442
20
10.911437827766129
42
0.18267581368156638
10
-459.87500762939442
20
10.580718913883107
42
-0.93922053388451421
10
-460.58072654327754
20
9.8749999999999876
42
0.18267581368161226
10
-460.91144545716065
20
9.9999999999999911
10
-464.08856980162824
20
9.9999999999999911
42
0.18267581368161337
10
-464.41928871551136
20
9.8749999999999929
42
-0.9392205338844678
10
-465.12500762939447
20
10.580718913883064
42
0.18267581368159067
10
-465.00000762939442
20
10.911437827766129
10
-465.00000762939442
20
12.499999999999991
42
0.41421356237309503
10
-465.50000762939447
20
12.999999999999991
10
-471.50000762939442
20
12.999999999999991
42
0.41421356237309503
10
-472.00000762939442
20
12.499999999999991
10
-472.00000762939442
20
10.911437827766129
42
0.18267581368159072
10
-471.87500762939442
20
10.58071891388304
42
-0.93922053388441928
10
-472.58072654327748
20
9.8749999999999876
42
0.18267581368161226
10
-472.9114454571606
20
9.9999999999999911
10
-474.35000762939444
20
9.9999999999999911
10
-474.35000762939444
20
-10.000000000000009
10
-472.9114454571606
20
-10.000000000000009
42
0.18267581368161337
10
-472.58072654327754
20
-9.8749999999999769
42
-0.93922053388441551
10
-471.87500762939442
20
-10.58071891388308
42
0.18267581368159158
10
-472.00000762939442
20
-10.911437827766147
10
-472.00000762939442
20
-12.500000000000009
42
0.41421356237309503
10
-471.50000762939442
20
-13.000000000000009
10
-465.50000762939447
20
-13.000000000000009
42
0.41421356237309503
10
-465.00000762939442
20
-12.500000000000009
10
-465.00000762939442
20
-10.911437827766147
42
0.18267581368156549
10
-465.12500762939447
20
-10.580718913883125
42
-0.93922053388451621
10
-464.41928871551136
20
-9.8750000000000053
42
0.18267581368161181
10
-464.08856980162824
20
-10.000000000000009
10
-460.91144545716065
20
-10.000000000000009
42
0.18267581368161337
10
-460.58072654327754
20
-9.8750000000000515
42
-0.93922053388451043
10
-459.87500762939447
20
-10.58071891388308
42
0.18267581368156718
10
-460.00000762939442
20
-10.911437827766147
10
-460.00000762939442
20
-12.500000000000009
42
0.41421356237309503
10
-459.50000762939442
20
-13.000000000000009
10
-453.50000762939442
20
-13.000000000000009
42
0.41421356237309503
10
-453.00000762939447
20
-12.500000000000009
10
-453.00000762939447
20
-10.911437827766157
42
0.18267581368159322
10
-453.12500762939442
20
-10.580718913883057
42
-0.93922053388442639
10
-452.41928871551136
20
-9.8750000000000107
42
0.1826758136816099
10
-452.0885698016283
20
-10.000000000000009
0
CIRCLE
5
101
100
AcDbEntity
8
0
100
AcDbCircle
10
470.50000762939442
20
-7.5000000000000098
30
1.0658141036401498e-13
40
1.5499999999999936
210
9.8607613152626476e-32
220
-1.7272337110188889e-77
230
-1
0
CIRCLE
5
102
100
AcDbEntity
8
0
100
AcDbCircle
10
454.50000762939447
20
-7.5000000000000098
30
1.0658141036401498e-13
40
1.5499999999999936
210
9.8607613152626476e-32
220
-1.7272337110188889e-77
230
-1
0
CIRCLE
5
103
100
AcDbEntity
8
0
100
AcDbCircle
10
-454.50000762939447
20
7.499999999999992
30
-1.0658141036401503e-13
40
1.5499999999999936
210
-9.8607613152626476e-32
220
1.7272337110188889e-77
230
1
0
CIRCLE
5
104
100
AcDbEntity
8
0
100
AcDbCircle
10
-470.50000762939442
20
7.499999999999992
30
-1.0658141036401503e-13
40
1.5499999999999936
210
-9.8607613152626476e-32
220
1.7272337110188889e-77
230
1
0
ENDSEC
0
SECTION
2
OBJECTS
0
DICTIONARY
5
C
100
AcDbDictionary
3
ACAD_GROUP
350
D
3
ACAD_MLINESTYLE
350
17
0
DICTIONARY
5
D
100
AcDbDictionary
0
DICTIONARY
5
1A
330
C
100
AcDbDictionary
0
DICTIONARY
5
17
100
AcDbDictionary
0
ENDSEC
0
EOF
