0
SECTION
2
HEADER
9
$INSUNITS
70
4
9
$ACADVER
1
AC1014
9
$HANDSEED
5
FFFF
0
ENDSEC
0
SECTION
2
TABLES
0
TABLE
2
VPORT
5
8
100
AcDbSymbolTable
0
ENDTAB
0
TABLE
2
LTYPE
5
5
100
AcDbSymbolTable
0
LTYPE
5
14
100
AcDbSymbolTableRecord
100
AcDbLinetypeTableRecord
2
BYBLOCK
70
0
0
LTYPE
5
15
100
AcDbSymbolTableRecord
100
AcDbLinetypeTableRecord
2
BYLAYER
70
0
0
ENDTAB
0
TABLE
2
LAYER
5
2
100
AcDbSymbolTable
70
2
0
LAYER
5
50
100
AcDbSymbolTableRecord
100
AcDbLayerTableRecord
2
0
70
0
6
CONTINUOUS
0
ENDTAB
0
TABLE
2
STYLE
5
3
100
AcDbSymbolTable
70
1
0
STYLE
5
11
100
AcDbSymbolTableRecord
100
AcDbTextStyleTableRecord
2
STANDARD
70
0
0
ENDTAB
0
TABLE
2
VIEW
5
6
100
AcDbSymbolTable
70
0
0
ENDTAB
0
TABLE
2
UCS
5
7
100
AcDbSymbolTable
70
0
0
ENDTAB
0
TABLE
2
APPID
5
9
100
AcDbSymbolTable
70
2
0
APPID
5
12
100
AcDbSymbolTableRecord
100
AcDbRegAppTableRecord
2
ACAD
70
0
0
ENDTAB
0
TABLE
2
DIMSTYLE
5
A
100
AcDbSymbolTable
70
1
0
ENDTAB
0
TABLE
2
BLOCK_RECORD
5
1
100
AcDbSymbolTable
70
1
0
BLOCK_RECORD
5
1F
100
AcDbSymbolTableRecord
100
AcDbBlockTableRecord
2
*MODEL_SPACE
0
BLOCK_RECORD
5
1B
100
AcDbSymbolTableRecord
100
AcDbBlockTableRecord
2
*PAPER_SPACE
0
ENDTAB
0
ENDSEC
0
SECTION
2
BLOCKS
0
BLOCK
5
20
100
AcDbEntity
100
AcDbBlockBegin
2
*MODEL_SPACE
0
ENDBLK
5
21
100
AcDbEntity
100
AcDbBlockEnd
0
BLOCK
5
1C
100
AcDbEntity
100
AcDbBlockBegin
2
*PAPER_SPACE
0
ENDBLK
5
1D
100
AcDbEntity
100
AcDbBlockEnd
0
ENDSEC
0
SECTION
2
ENTITIES
0
LWPOLYLINE
5
100
100
AcDbEntity
8
0
100
AcDbPolyline
90
32
70
1
43
0.0
10
-633.86143782775423
20
-7.099999999999981
42
0.18267581368158581
10
-633.53071891387117
20
-6.9749999999999872
42
-0.93922053388446691
10
-632.82499999998799
20
-7.6807189138830525
42
0.18267581368159067
10
-632.94999999998811
20
-8.011437827766116
10
-632.94999999998811
20
-9.2999999999999456
42
0.41421356237309503
10
-632.44999999998799
20
-9.7999999999999456
10
-630.99999999997658
20
-9.7999999999999439
42
0.41421356237309503
10
-629.99999999997669
20
-8.7999999999999492
10
-629.99999999997669
20
8.2999999999999492
42
0.41421356237309503
10
-630.99999999997658
20
9.2999999999999456
10
-632.44999999998799
20
9.2999999999999456
42
0.41421356237309503
10
-632.94999999998811
20
8.7999999999999474
10
-632.94999999998811
20
7.5114378277661187
42
0.18267581368159067
10
-632.82499999998799
20
7.1807189138830632
42
-0.93922053388446902
10
-633.53071891387117
20
6.474999999999981
42
0.18267581368158467
10
-633.86143782775423
20
6.5999999999999837
10
-637.1385621722219
20
6.5999999999999828
42
0.18267581368158317
10
-637.46928108610496
20
6.4750000000000281
42
-0.93922053388451587
10
-638.17499999998802
20
7.1807189138830552
42
0.18267581368156591
10
-638.04999999998802
20
7.5114378277661178
10
-638.04999999998802
20
8.7999999999999474
42
0.41421356237309503
10
-638.54999999998813
20
9.2999999999999439
10
-642.49999999997669
20
9.2999999999999456
42
0.41421356237309537
10
-643.49999999997658
20
8.2999999999999456
10
-643.49999999997658
20
-8.7999999999999527
42
0.4142135623730947
10
-642.49999999997669
20
-9.7999999999999474
10
-638.54999999998813
20
-9.7999999999999474
42
0.41421356237309503
10
-638.04999999998802
20
-9.2999999999999474
10
-638.04999999998802
20
-8.0114378277661178
42
0.18267581368156507
10
-638.17499999998813
20
-7.6807189138830987
42
-0.93922053388451621
10
-637.46928108610496
20
-6.974999999999981
42
0.18267581368158431
10
-637.1385621722219
20
-7.0999999999999819
0
LWPOLYLINE
5
101
100
AcDbEntity
8
0
100
AcDbPolyline
90
4
70
1
43
0.0
10
-632.94999999997674
20
0.24999999999999964
10
-632.94999999997663
20
-0.749999999999996
42
-0.99999999999999989
10
-638.04999999997665
20
-0.74999999999999845
10
-638.04999999997665
20
0.24999999999999928
42
-0.99999999999999989
0
ENDSEC
0
SECTION
2
OBJECTS
0
DICTIONARY
5
C
100
AcDbDictionary
3
ACAD_GROUP
350
D
3
ACAD_MLINESTYLE
350
17
0
DICTIONARY
5
D
100
AcDbDictionary
0
DICTIONARY
5
1A
330
C
100
AcDbDictionary
0
DICTIONARY
5
17
100
AcDbDictionary
0
ENDSEC
0
EOF
