0
SECTION
2
HEADER
9
$INSUNITS
70
4
9
$ACADVER
1
AC1014
9
$HANDSEED
5
FFFF
0
ENDSEC
0
SECTION
2
TABLES
0
TABLE
2
VPORT
5
8
100
AcDbSymbolTable
0
ENDTAB
0
TABLE
2
LTYPE
5
5
100
AcDbSymbolTable
0
LTYPE
5
14
100
AcDbSymbolTableRecord
100
AcDbLinetypeTableRecord
2
BYBLOCK
70
0
0
LTYPE
5
15
100
AcDbSymbolTableRecord
100
AcDbLinetypeTableRecord
2
BYLAYER
70
0
0
ENDTAB
0
TABLE
2
LAYER
5
2
100
AcDbSymbolTable
70
2
0
LAYER
5
50
100
AcDbSymbolTableRecord
100
AcDbLayerTableRecord
2
0
70
0
6
CONTINUOUS
0
ENDTAB
0
TABLE
2
STYLE
5
3
100
AcDbSymbolTable
70
1
0
STYLE
5
11
100
AcDbSymbolTableRecord
100
AcDbTextStyleTableRecord
2
STANDARD
70
0
0
ENDTAB
0
TABLE
2
VIEW
5
6
100
AcDbSymbolTable
70
0
0
ENDTAB
0
TABLE
2
UCS
5
7
100
AcDbSymbolTable
70
0
0
ENDTAB
0
TABLE
2
APPID
5
9
100
AcDbSymbolTable
70
2
0
APPID
5
12
100
AcDbSymbolTableRecord
100
AcDbRegAppTableRecord
2
ACAD
70
0
0
ENDTAB
0
TABLE
2
DIMSTYLE
5
A
100
AcDbSymbolTable
70
1
0
ENDTAB
0
TABLE
2
BLOCK_RECORD
5
1
100
AcDbSymbolTable
70
1
0
BLOCK_RECORD
5
1F
100
AcDbSymbolTableRecord
100
AcDbBlockTableRecord
2
*MODEL_SPACE
0
BLOCK_RECORD
5
1B
100
AcDbSymbolTableRecord
100
AcDbBlockTableRecord
2
*PAPER_SPACE
0
ENDTAB
0
ENDSEC
0
SECTION
2
BLOCKS
0
BLOCK
5
20
100
AcDbEntity
100
AcDbBlockBegin
2
*MODEL_SPACE
0
ENDBLK
5
21
100
AcDbEntity
100
AcDbBlockEnd
0
BLOCK
5
1C
100
AcDbEntity
100
AcDbBlockBegin
2
*PAPER_SPACE
0
ENDBLK
5
1D
100
AcDbEntity
100
AcDbBlockEnd
0
ENDSEC
0
SECTION
2
ENTITIES
0
LWPOLYLINE
5
100
100
AcDbEntity
8
0
100
AcDbPolyline
90
40
70
1
43
0.0
10
1175.125
20
31.602293788009202
42
0.18267581368155431
10
1175
20
31.27157487412617
10
1175
20
28.911437827766253
42
0.18267581368162353
10
1175.125
20
28.5807189138831
42
-0.93922053388438587
10
1174.4192810861168
20
27.875000000000046
42
0.1826758136815862
10
1174.0885621722339
20
28.000000000000078
10
1171.5
20
28.000000000000043
42
0.41421356237309503
10
1170
20
26.500000000000039
10
1170
20
20.500000000000046
42
0.41421356237309503
10
1171.5
20
19.000000000000046
10
1174.8786796564405
20
19.000000000000039
42
0.19891236737965584
10
1175.9393398282202
20
19.439339828220223
10
1178.0606601717798
20
21.560660171779826
42
0.19891236737966017
10
1178.5
20
22.621320343559645
10
1178.5
20
52.378679656439608
42
0.19891236737965362
10
1178.0606601717798
20
53.439339828219374
10
1175.9393398282202
20
55.560660171779254
42
0.19891236737967868
10
1174.8786796564402
20
55.999999999999481
10
1171.5
20
55.999999999999481
42
0.41421356237309503
10
1170
20
54.499999999999474
10
1170
20
48.50000000000005
42
0.41421356237309503
10
1171.5
20
47.000000000000043
10
1174.0885621722339
20
47.000000000000043
42
0.18267581368158467
10
1174.4192810861168
20
47.125000000000128
42
-0.93922053388439419
10
1175.125
20
46.419281086116939
42
0.182675813681627
10
1175
20
46.088562172233843
10
1175
20
43.728425125874011
42
0.18267581368163388
10
1175.125
20
43.397706211990901
42
-0.18267581368163036
10
1175.25
20
43.066987298107797
10
1175.25
20
40.250000000000057
42
-0.58780165164165732
10
1174.4866086561788
20
39.825000000000031
42
0.13959913241684321
10
1174.2232173123575
20
39.900000000000055
10
1172.3
20
39.900000000000055
42
0.41421356237309503
10
1171.8000000000002
20
39.400000000000055
10
1171.8000000000002
20
35.600000000000051
42
0.41421356237309503
10
1172.3
20
35.100000000000051
10
1174.2232173123575
20
35.100000000000051
42
0.13959913241684321
10
1174.4866086561788
20
35.175000000000175
42
-0.58780165164165432
10
1175.25
20
34.750000000000057
10
1175.2499999999998
20
31.933012701892231
42
-0.18267581368160121
0
CIRCLE
5
101
100
AcDbEntity
8
0
100
AcDbCircle
10
-1173.4000000000001
20
24.000000000000039
30
2.2893240718360364e-62
40
1.5499999999999936
210
1.9510176170411082e-65
220
0
230
-1
0
CIRCLE
5
102
100
AcDbEntity
8
0
100
AcDbCircle
10
-1173.4000000000001
20
51.000000000000028
30
2.2893240718360364e-62
40
1.5499999999999936
210
1.9510176170411082e-65
220
0
230
-1
0
ENDSEC
0
SECTION
2
OBJECTS
0
DICTIONARY
5
C
100
AcDbDictionary
3
ACAD_GROUP
350
D
3
ACAD_MLINESTYLE
350
17
0
DICTIONARY
5
D
100
AcDbDictionary
0
DICTIONARY
5
1A
330
C
100
AcDbDictionary
0
DICTIONARY
5
17
100
AcDbDictionary
0
ENDSEC
0
EOF
