0
SECTION
2
HEADER
9
$INSUNITS
70
4
9
$ACADVER
1
AC1014
9
$HANDSEED
5
FFFF
0
ENDSEC
0
SECTION
2
TABLES
0
TABLE
2
VPORT
5
8
100
AcDbSymbolTable
0
ENDTAB
0
TABLE
2
LTYPE
5
5
100
AcDbSymbolTable
0
LTYPE
5
14
100
AcDbSymbolTableRecord
100
AcDbLinetypeTableRecord
2
BYBLOCK
70
0
0
LTYPE
5
15
100
AcDbSymbolTableRecord
100
AcDbLinetypeTableRecord
2
BYLAYER
70
0
0
ENDTAB
0
TABLE
2
LAYER
5
2
100
AcDbSymbolTable
70
2
0
LAYER
5
50
100
AcDbSymbolTableRecord
100
AcDbLayerTableRecord
2
0
70
0
6
CONTINUOUS
0
ENDTAB
0
TABLE
2
STYLE
5
3
100
AcDbSymbolTable
70
1
0
STYLE
5
11
100
AcDbSymbolTableRecord
100
AcDbTextStyleTableRecord
2
STANDARD
70
0
0
ENDTAB
0
TABLE
2
VIEW
5
6
100
AcDbSymbolTable
70
0
0
ENDTAB
0
TABLE
2
UCS
5
7
100
AcDbSymbolTable
70
0
0
ENDTAB
0
TABLE
2
APPID
5
9
100
AcDbSymbolTable
70
2
0
APPID
5
12
100
AcDbSymbolTableRecord
100
AcDbRegAppTableRecord
2
ACAD
70
0
0
ENDTAB
0
TABLE
2
DIMSTYLE
5
A
100
AcDbSymbolTable
70
1
0
ENDTAB
0
TABLE
2
BLOCK_RECORD
5
1
100
AcDbSymbolTable
70
1
0
BLOCK_RECORD
5
1F
100
AcDbSymbolTableRecord
100
AcDbBlockTableRecord
2
*MODEL_SPACE
0
BLOCK_RECORD
5
1B
100
AcDbSymbolTableRecord
100
AcDbBlockTableRecord
2
*PAPER_SPACE
0
ENDTAB
0
ENDSEC
0
SECTION
2
BLOCKS
0
BLOCK
5
20
100
AcDbEntity
100
AcDbBlockBegin
2
*MODEL_SPACE
0
ENDBLK
5
21
100
AcDbEntity
100
AcDbBlockEnd
0
BLOCK
5
1C
100
AcDbEntity
100
AcDbBlockBegin
2
*PAPER_SPACE
0
ENDBLK
5
1D
100
AcDbEntity
100
AcDbBlockEnd
0
ENDSEC
0
SECTION
2
ENTITIES
0
LWPOLYLINE
5
100
100
AcDbEntity
8
0
100
AcDbPolyline
90
6
70
1
43
0.0
10
1013.0000000000123
20
10
10
1013.0000000000123
20
1.9999999999999996
10
1008.5000000000123
20
1.9999999999999429
42
-0.41421356237309503
10
1007.0000000000123
20
3.5
10
1007.0000000000123
20
8.5
42
-0.41421356237309503
10
1008.5000000000123
20
10
0
LWPOLYLINE
5
101
100
AcDbEntity
8
0
100
AcDbPolyline
90
39
70
1
43
0.0
10
971.59999999999729
20
-10.888562172233895
42
0.18267581368161148
10
971.72499999999718
20
-11.219281086117
42
-0.93922053388436288
10
971.01928108611423
20
-11.925000000000006
42
0.18267581368163896
10
970.68856217223106
20
-11.800000000000004
10
967.09999999999718
20
-11.800000000000004
42
0.41421356237309503
10
966.59999999999729
20
-12.300000000000004
10
966.59999999999729
20
-13.999999999999996
42
0.41421356237309503
10
967.09999999999718
20
-14.499999999999996
10
1009.0000000000123
20
-14.5
10
1009.0000000000123
20
-18.899999999999999
42
0.41421356237309503
10
1009.5000000000123
20
-19.399999999999999
10
1020.5000000000123
20
-19.399999999999999
42
0.41421356237309503
10
1021.0000000000123
20
-18.899999999999999
10
1021.0000000000123
20
-15.300000000000002
10
1015.5000000000123
20
-15.300000000000001
10
1015.5000000000123
20
0.50000000000000266
10
1017.5000000000124
20
0.49999999999999978
42
0.41421356237309503
10
1018.0000000000123
20
0.99999999999999978
10
1018.0000000000123
20
11
10
1021.0000000000123
20
11
10
1021.0000000000123
20
18.299999999999997
42
0.41421356237309503
10
1020.5000000000123
20
18.799999999999997
10
1009.5000000000123
20
18.799999999999997
42
0.4142135623730937
10
1009.0000000000123
20
18.299999999999997
10
1009.0000000000123
20
13.199999999999996
10
967.09999999999718
20
13.199999999999989
42
0.41421356237309503
10
966.59999999999729
20
12.699999999999989
10
966.59999999999729
20
11.000000000000005
42
0.41421356237309503
10
967.09999999999718
20
10.500000000000005
10
970.68856217223117
20
10.500000000000005
42
0.18267581368163827
10
971.01928108611435
20
10.624999999999991
42
-0.93922053388446236
10
971.72499999999729
20
9.9192810861169285
42
0.18267581368156352
10
971.59999999999741
20
9.5885621722338694
10
971.59999999999729
20
7.2999999999999989
10
997.09999999999718
20
7.3000000000000576
42
-0.41421356237309503
10
998.59999999999729
20
5.8000000000000007
10
998.59999999999729
20
-7.0999999999999979
42
-0.41421356237309503
10
997.09999999999718
20
-8.5999999999999979
10
971.59999999999729
20
-8.6000000000000014
0
CIRCLE
5
102
100
AcDbEntity
8
0
100
AcDbCircle
10
1003.0000000000123
20
5.9999999999999982
30
1.7763568394002505e-14
40
1.2500000000000004
210
-3.8564380511348016e-87
220
1.3684555315672042e-48
230
1
0
ENDSEC
0
SECTION
2
OBJECTS
0
DICTIONARY
5
C
100
AcDbDictionary
3
ACAD_GROUP
350
D
3
ACAD_MLINESTYLE
350
17
0
DICTIONARY
5
D
100
AcDbDictionary
0
DICTIONARY
5
1A
330
C
100
AcDbDictionary
0
DICTIONARY
5
17
100
AcDbDictionary
0
ENDSEC
0
EOF
