0
SECTION
2
HEADER
9
$INSUNITS
70
4
9
$ACADVER
1
AC1014
9
$HANDSEED
5
FFFF
0
ENDSEC
0
SECTION
2
TABLES
0
TABLE
2
VPORT
5
8
100
AcDbSymbolTable
0
ENDTAB
0
TABLE
2
LTYPE
5
5
100
AcDbSymbolTable
0
LTYPE
5
14
100
AcDbSymbolTableRecord
100
AcDbLinetypeTableRecord
2
BYBLOCK
70
0
0
LTYPE
5
15
100
AcDbSymbolTableRecord
100
AcDbLinetypeTableRecord
2
BYLAYER
70
0
0
ENDTAB
0
TABLE
2
LAYER
5
2
100
AcDbSymbolTable
70
2
0
LAYER
5
50
100
AcDbSymbolTableRecord
100
AcDbLayerTableRecord
2
0
70
0
6
CONTINUOUS
0
ENDTAB
0
TABLE
2
STYLE
5
3
100
AcDbSymbolTable
70
1
0
STYLE
5
11
100
AcDbSymbolTableRecord
100
AcDbTextStyleTableRecord
2
STANDARD
70
0
0
ENDTAB
0
TABLE
2
VIEW
5
6
100
AcDbSymbolTable
70
0
0
ENDTAB
0
TABLE
2
UCS
5
7
100
AcDbSymbolTable
70
0
0
ENDTAB
0
TABLE
2
APPID
5
9
100
AcDbSymbolTable
70
2
0
APPID
5
12
100
AcDbSymbolTableRecord
100
AcDbRegAppTableRecord
2
ACAD
70
0
0
ENDTAB
0
TABLE
2
DIMSTYLE
5
A
100
AcDbSymbolTable
70
1
0
ENDTAB
0
TABLE
2
BLOCK_RECORD
5
1
100
AcDbSymbolTable
70
1
0
BLOCK_RECORD
5
1F
100
AcDbSymbolTableRecord
100
AcDbBlockTableRecord
2
*MODEL_SPACE
0
BLOCK_RECORD
5
1B
100
AcDbSymbolTableRecord
100
AcDbBlockTableRecord
2
*PAPER_SPACE
0
ENDTAB
0
ENDSEC
0
SECTION
2
BLOCKS
0
BLOCK
5
20
100
AcDbEntity
100
AcDbBlockBegin
2
*MODEL_SPACE
0
ENDBLK
5
21
100
AcDbEntity
100
AcDbBlockEnd
0
BLOCK
5
1C
100
AcDbEntity
100
AcDbBlockBegin
2
*PAPER_SPACE
0
ENDBLK
5
1D
100
AcDbEntity
100
AcDbBlockEnd
0
ENDSEC
0
SECTION
2
ENTITIES
0
LWPOLYLINE
5
100
100
AcDbEntity
8
0
100
AcDbPolyline
90
4
70
1
43
0.0
10
178.24999999999994
20
-288.5000076293943
10
180.45000000000002
20
-288.5000076293943
10
180.45000000000002
20
-299.50000762939447
10
178.24999999999994
20
-299.50000762939447
0
LWPOLYLINE
5
101
100
AcDbEntity
8
0
100
AcDbPolyline
90
4
70
1
43
0.0
10
186
20
-288.5000076293943
10
186
20
-299.50000762939447
10
183.61999999999995
20
-299.50000762939447
10
183.61999999999995
20
-288.5000076293943
0
LWPOLYLINE
5
102
100
AcDbEntity
8
0
100
AcDbPolyline
90
8
70
1
43
0.0
10
173.5
20
-299.50000762939453
10
172.00000000000003
20
-299.50000762939453
42
-0.41421356237309503
10
171
20
-298.50000762939453
10
171.00000000000006
20
-289.50000762939447
42
-0.41421356237309503
10
172.00000000000003
20
-288.50000762939453
10
173.5
20
-288.50000762939453
42
-0.41421356237309503
10
174.5
20
-289.50000762939447
10
174.50000000000003
20
-298.50000762939453
42
-0.41421356237309503
0
LWPOLYLINE
5
103
100
AcDbEntity
8
0
100
AcDbPolyline
90
36
70
1
43
0.0
10
141.93933982830907
20
-249.56066780119957
42
0.1989123673796602
10
141.5000000000889
20
-250.62132797297943
10
141.50000000008887
20
-283.37868728583481
42
0.1989123673796602
10
141.93933982830907
20
-284.43934745761464
10
145.0606601718687
20
-287.56066780117425
42
0.19891236737965584
10
146.12132034364851
20
-288.00000762939442
10
151.40075759610158
20
-288.00000762939442
42
-0.19891236737965801
10
153.52207793966124
20
-288.87868728583476
10
154.70405845502165
20
-290.06066780119517
42
0.19891236737965978
10
155.76471862680148
20
-290.50000762941528
10
157.10710678120736
20
-290.50000762941528
42
-0.1989123673796685
10
159.22842712476711
20
-291.37868728585568
10
169.91040764008542
20
-302.06066780117436
42
0.19891236737966234
10
170.97106781186525
20
-302.50000762939453
10
183.5
20
-302.50000762939453
42
-0.41421356237309503
10
185
20
-304.00000762939453
10
185
20
-304.77868728583491
42
0.19891236737965801
10
185.43933982822017
20
-305.83934745761474
10
187.56066017177977
20
-307.96066780117434
42
0.19891236737965801
10
188.62132034355963
20
-308.40000762939451
10
201.37867965644037
20
-308.40000762939451
42
0.19891236737965801
10
202.43933982822017
20
-307.96066780117434
10
204.56066017177983
20
-305.83934745761474
42
0.19891236737965801
10
205
20
-304.77868728583485
10
205
20
-281.50000762939453
42
0.41421356237309503
10
203.49999999999997
20
-280.00000762939453
10
193.74264068711926
20
-280.00000762939453
42
-0.19891236737965801
10
191.62132034355963
20
-279.12132797295419
10
184.37867965644156
20
-271.87868728583612
42
-0.19891236737965801
10
183.50000000000122
20
-269.75736694227646
10
183.50000000000119
20
-250.62132797297943
42
0.19891236737966234
10
183.060660171781
20
-249.56066780119957
10
179.93933982822139
20
-246.43934745763994
42
0.19891236737965801
10
178.87867965644153
20
-246.00000762941974
10
146.12132034364853
20
-246.00000762941977
42
0.19891236737965584
10
145.0606601718687
20
-246.43934745763994
0
LWPOLYLINE
5
104
100
AcDbEntity
8
0
100
AcDbPolyline
90
4
70
1
43
0.0
10
197.5499999999995
20
-301.40000762939354
42
0.99999999999999989
10
192.44999999999959
20
-301.40000762939553
10
192.44999999999999
20
-302.40000762939565
42
0.99999999999999989
10
197.55000000000001
20
-302.40000762939337
0
LWPOLYLINE
5
105
100
AcDbEntity
8
0
100
AcDbPolyline
90
4
70
1
43
0.0
10
197.54999999999998
20
-286.00000762939453
10
197.54999999999998
20
-287.00000762939453
42
-0.99999999999999989
10
192.45000000000002
20
-287.00000762939453
10
192.45000000000002
20
-286.00000762939453
42
-0.99999999999999989
0
CIRCLE
5
106
100
AcDbEntity
8
0
100
AcDbCircle
10
-146.50000000008876
20
-267.0000076294196
30
1.1102230246251565e-15
40
1.5500000000000003
210
1.765749072990092e-45
220
5.6051938572992683e-45
230
-1
0
CIRCLE
5
107
100
AcDbEntity
8
0
100
AcDbCircle
10
-178.00000000008021
20
-251.50000762941539
30
1.1102230246251565e-15
40
1.5500000000000025
210
1.515304220159188e-58
220
5.6051938572992683e-45
230
-1
0
CIRCLE
5
108
100
AcDbEntity
8
0
100
AcDbCircle
10
-147.00000000005576
20
-282.50000762941534
30
1.1102230246251565e-15
40
1.549999999999998
210
1.515304220159188e-58
220
5.6051938572992683e-45
230
-1
0
CIRCLE
5
109
100
AcDbEntity
8
0
100
AcDbCircle
10
-158.25000000104001
20
-283.00000762941528
30
1.1102230246251565e-15
40
1.549999999999998
210
1.515304220159188e-58
220
5.6051938572992683e-45
230
-1
0
CIRCLE
5
110
100
AcDbEntity
8
0
100
AcDbCircle
10
-147.00000000006798
20
-251.50000762940317
30
1.1102230246251565e-15
40
1.549999999999998
210
1.515304220159188e-58
220
5.6051938572992683e-45
230
-1
0
CIRCLE
5
111
100
AcDbEntity
8
0
100
AcDbCircle
10
-162.50000000006798
20
-267.00000762941539
30
1.1102230246251565e-15
40
11.050000000000002
210
1.515304220159188e-58
220
5.6051938572992683e-45
230
-1
0
CIRCLE
5
112
100
AcDbEntity
8
0
100
AcDbCircle
10
-178.00000000006798
20
-282.50000762942756
30
1.1102230246251565e-15
40
1.5500000000000025
210
1.515304220159188e-58
220
5.6051938572992683e-45
230
-1
0
ENDSEC
0
SECTION
2
OBJECTS
0
DICTIONARY
5
C
100
AcDbDictionary
3
ACAD_GROUP
350
D
3
ACAD_MLINESTYLE
350
17
0
DICTIONARY
5
D
100
AcDbDictionary
0
DICTIONARY
5
1A
330
C
100
AcDbDictionary
0
DICTIONARY
5
17
100
AcDbDictionary
0
ENDSEC
0
EOF
