0
SECTION
2
HEADER
9
$INSUNITS
70
4
9
$ACADVER
1
AC1014
9
$HANDSEED
5
FFFF
0
ENDSEC
0
SECTION
2
TABLES
0
TABLE
2
VPORT
5
8
100
AcDbSymbolTable
0
ENDTAB
0
TABLE
2
LTYPE
5
5
100
AcDbSymbolTable
0
LTYPE
5
14
100
AcDbSymbolTableRecord
100
AcDbLinetypeTableRecord
2
BYBLOCK
70
0
0
LTYPE
5
15
100
AcDbSymbolTableRecord
100
AcDbLinetypeTableRecord
2
BYLAYER
70
0
0
ENDTAB
0
TABLE
2
LAYER
5
2
100
AcDbSymbolTable
70
2
0
LAYER
5
50
100
AcDbSymbolTableRecord
100
AcDbLayerTableRecord
2
0
70
0
6
CONTINUOUS
0
ENDTAB
0
TABLE
2
STYLE
5
3
100
AcDbSymbolTable
70
1
0
STYLE
5
11
100
AcDbSymbolTableRecord
100
AcDbTextStyleTableRecord
2
STANDARD
70
0
0
ENDTAB
0
TABLE
2
VIEW
5
6
100
AcDbSymbolTable
70
0
0
ENDTAB
0
TABLE
2
UCS
5
7
100
AcDbSymbolTable
70
0
0
ENDTAB
0
TABLE
2
APPID
5
9
100
AcDbSymbolTable
70
2
0
APPID
5
12
100
AcDbSymbolTableRecord
100
AcDbRegAppTableRecord
2
ACAD
70
0
0
ENDTAB
0
TABLE
2
DIMSTYLE
5
A
100
AcDbSymbolTable
70
1
0
ENDTAB
0
TABLE
2
BLOCK_RECORD
5
1
100
AcDbSymbolTable
70
1
0
BLOCK_RECORD
5
1F
100
AcDbSymbolTableRecord
100
AcDbBlockTableRecord
2
*MODEL_SPACE
0
BLOCK_RECORD
5
1B
100
AcDbSymbolTableRecord
100
AcDbBlockTableRecord
2
*PAPER_SPACE
0
ENDTAB
0
ENDSEC
0
SECTION
2
BLOCKS
0
BLOCK
5
20
100
AcDbEntity
100
AcDbBlockBegin
2
*MODEL_SPACE
0
ENDBLK
5
21
100
AcDbEntity
100
AcDbBlockEnd
0
BLOCK
5
1C
100
AcDbEntity
100
AcDbBlockBegin
2
*PAPER_SPACE
0
ENDBLK
5
1D
100
AcDbEntity
100
AcDbBlockEnd
0
ENDSEC
0
SECTION
2
ENTITIES
0
LWPOLYLINE
5
100
100
AcDbEntity
8
0
100
AcDbPolyline
90
4
70
1
43
0.0
10
-180.45000000000005
20
211.5000000000002
10
-178.25000000000003
20
211.5000000000002
10
-178.25000000000003
20
200.50000000000006
10
-180.45000000000005
20
200.50000000000006
0
LWPOLYLINE
5
101
100
AcDbEntity
8
0
100
AcDbPolyline
90
4
70
1
43
0.0
10
-186
20
200.50000000000006
10
-186
20
211.5000000000002
10
-183.61999999999998
20
211.5000000000002
10
-183.61999999999998
20
200.50000000000006
0
LWPOLYLINE
5
102
100
AcDbEntity
8
0
100
AcDbPolyline
90
8
70
1
43
0.0
10
-171
20
210.5
10
-171
20
201.5
42
-0.41421356237309503
10
-172.00000000000003
20
200.49999999999997
10
-173.5
20
200.5
42
-0.41421356237309503
10
-174.5
20
201.5
10
-174.50000000000003
20
210.5
42
-0.41421356237309503
10
-173.5
20
211.50000000000003
10
-172.00000000000003
20
211.50000000000003
42
-0.41421356237309503
0
LWPOLYLINE
5
103
100
AcDbEntity
8
0
100
AcDbPolyline
90
32
70
1
43
0.0
10
-161.92933982923194
20
227.4829906420951
42
0.19891236737966234
10
-161.49000000101177
20
228.54365081387496
10
-161.49000000101177
20
242.65634918608302
42
0.19891236737965801
10
-161.92933982923194
20
243.71700935786282
10
-166.77299064314889
20
248.56066017177983
42
0.19891236737965359
10
-167.83365081492866
20
249
10
-179.87867965644156
20
249
42
0.19891236737965359
10
-180.93933982822136
20
248.56066017177983
10
-183.060660171781
20
246.4393398282202
42
0.19891236737966234
10
-183.50000000000119
20
245.37867965644037
10
-183.50000000000122
20
230.24264068711804
42
-0.19891236737965801
10
-184.37867965644156
20
228.12132034355841
10
-191.6213203435596
20
220.87867965644034
42
-0.19891236737965581
10
-193.74264068711923
20
220
10
-203.49999999999997
20
220
42
0.41421356237309503
10
-204.99999999999997
20
218.5
10
-204.99999999999997
20
195.22132034355963
42
0.19891236737965801
10
-204.56066017177977
20
194.16066017177982
10
-202.43933982822014
20
192.03933982822019
42
0.19891236737965362
10
-201.37867965644034
20
191.59999999999999
10
-188.6213203435596
20
191.59999999999999
42
0.19891236737965362
10
-187.56066017177977
20
192.03933982822019
10
-185.43933982822017
20
194.1606601717798
42
0.19891236737966234
10
-185
20
195.22132034355963
10
-185.00000000000003
20
195.99999999999997
42
-0.41421356237309503
10
-183.5
20
197.5
10
-170.97106781186523
20
197.5
42
0.19891236737966234
10
-169.9104076400854
20
197.93933982822017
10
-165.18933982923187
20
202.66040763907384
42
0.19891236737964929
10
-164.75000000101173
20
203.72106781085364
10
-164.75000000101173
20
223.41968978319602
42
-0.19891236737965581
10
-163.87132034457139
20
225.54101012675568
0
LWPOLYLINE
5
104
100
AcDbEntity
8
0
100
AcDbPolyline
90
4
70
1
43
0.0
10
-192.44999999999999
20
214
42
0.99999999999999989
10
-197.54999999999995
20
214
10
-197.54999999999998
20
213
42
0.99999999999999989
10
-192.44999999999999
20
213
0
LWPOLYLINE
5
105
100
AcDbEntity
8
0
100
AcDbPolyline
90
4
70
1
43
0.0
10
-197.54999999999995
20
197.59999999999997
42
0.99999999999999989
10
-192.44999999999999
20
197.59999999999883
10
-192.44999999999953
20
198.599999999999
42
0.99999999999999989
10
-197.5499999999995
20
198.60000000000099
0
CIRCLE
5
106
100
AcDbEntity
8
0
100
AcDbCircle
10
-171.49000000101177
20
244.69999999997898
30
0
40
1.25
210
0
220
0
230
1
0
CIRCLE
5
107
100
AcDbEntity
8
0
100
AcDbCircle
10
-171.49000000101177
20
226.499999999979
30
0
40
1.25
210
0
220
0
230
1
0
CIRCLE
5
108
100
AcDbEntity
8
0
100
AcDbCircle
10
-179.00000000000119
20
244.5
30
0
40
1.5500000000000003
210
0
220
0
230
1
0
CIRCLE
5
109
100
AcDbEntity
8
0
100
AcDbCircle
10
-175.74000000045623
20
219.6000000000117
30
0
40
1.5500000000000025
210
0
220
0
230
1
0
CIRCLE
5
110
100
AcDbEntity
8
0
100
AcDbCircle
10
-171.49000000101177
20
235.59999999997899
30
0
40
6.5149999999999952
210
0
220
0
230
1
0
ENDSEC
0
SECTION
2
OBJECTS
0
DICTIONARY
5
C
100
AcDbDictionary
3
ACAD_GROUP
350
D
3
ACAD_MLINESTYLE
350
17
0
DICTIONARY
5
D
100
AcDbDictionary
0
DICTIONARY
5
1A
330
C
100
AcDbDictionary
0
DICTIONARY
5
17
100
AcDbDictionary
0
ENDSEC
0
EOF
