0
SECTION
2
HEADER
9
$INSUNITS
70
4
9
$ACADVER
1
AC1014
9
$HANDSEED
5
FFFF
0
ENDSEC
0
SECTION
2
TABLES
0
TABLE
2
VPORT
5
8
100
AcDbSymbolTable
0
ENDTAB
0
TABLE
2
LTYPE
5
5
100
AcDbSymbolTable
0
LTYPE
5
14
100
AcDbSymbolTableRecord
100
AcDbLinetypeTableRecord
2
BYBLOCK
70
0
0
LTYPE
5
15
100
AcDbSymbolTableRecord
100
AcDbLinetypeTableRecord
2
BYLAYER
70
0
0
ENDTAB
0
TABLE
2
LAYER
5
2
100
AcDbSymbolTable
70
2
0
LAYER
5
50
100
AcDbSymbolTableRecord
100
AcDbLayerTableRecord
2
0
70
0
6
CONTINUOUS
0
ENDTAB
0
TABLE
2
STYLE
5
3
100
AcDbSymbolTable
70
1
0
STYLE
5
11
100
AcDbSymbolTableRecord
100
AcDbTextStyleTableRecord
2
STANDARD
70
0
0
ENDTAB
0
TABLE
2
VIEW
5
6
100
AcDbSymbolTable
70
0
0
ENDTAB
0
TABLE
2
UCS
5
7
100
AcDbSymbolTable
70
0
0
ENDTAB
0
TABLE
2
APPID
5
9
100
AcDbSymbolTable
70
2
0
APPID
5
12
100
AcDbSymbolTableRecord
100
AcDbRegAppTableRecord
2
ACAD
70
0
0
ENDTAB
0
TABLE
2
DIMSTYLE
5
A
100
AcDbSymbolTable
70
1
0
ENDTAB
0
TABLE
2
BLOCK_RECORD
5
1
100
AcDbSymbolTable
70
1
0
BLOCK_RECORD
5
1F
100
AcDbSymbolTableRecord
100
AcDbBlockTableRecord
2
*MODEL_SPACE
0
BLOCK_RECORD
5
1B
100
AcDbSymbolTableRecord
100
AcDbBlockTableRecord
2
*PAPER_SPACE
0
ENDTAB
0
ENDSEC
0
SECTION
2
BLOCKS
0
BLOCK
5
20
100
AcDbEntity
100
AcDbBlockBegin
2
*MODEL_SPACE
0
ENDBLK
5
21
100
AcDbEntity
100
AcDbBlockEnd
0
BLOCK
5
1C
100
AcDbEntity
100
AcDbBlockBegin
2
*PAPER_SPACE
0
ENDBLK
5
1D
100
AcDbEntity
100
AcDbBlockEnd
0
ENDSEC
0
SECTION
2
ENTITIES
0
LWPOLYLINE
5
100
100
AcDbEntity
8
0
100
AcDbPolyline
90
16
70
1
43
0.0
10
24.211437827768467
20
-640.99999999998863
42
0.18267581368155719
10
23.880718913885424
20
-641.12499999998863
42
-0.93922053388447568
10
23.175000000002356
20
-640.41928108610568
42
0.18267581368163674
10
23.300000000002349
20
-640.08856217222251
10
23.300000000002349
20
-630.91143782774338
42
0.18267581368161523
10
23.175000000002321
20
-630.58071891386032
42
-0.9392205338844043
10
23.880718913885399
20
-629.87499999997726
42
0.18267581368159008
10
24.211437827768467
20
-629.99999999997726
10
27.488562172236215
20
-629.99999999997726
42
0.18267581368159067
10
27.819281086119297
20
-629.87499999997726
42
-0.93922053388441928
10
28.525000000002358
20
-630.58071891386032
42
0.18267581368161379
10
28.40000000000235
20
-630.91143782774338
10
28.40000000000235
20
-640.08856217222251
42
0.18267581368163521
10
28.525000000002343
20
-640.41928108610568
42
-0.93922053388448867
10
27.819281086119258
20
-641.12499999998863
42
0.18267581368156863
10
27.488562172236193
20
-640.99999999998863
0
LWPOLYLINE
5
101
100
AcDbEntity
8
0
100
AcDbPolyline
90
32
70
1
43
0.0
10
33.40000000000235
20
-628.49999999997726
42
0.41421356237309853
10
31.900000000002329
20
-626.99999999997726
10
-13.257359312930761
20
-626.99999999997715
42
-0.19891236737961968
10
-15.378679656490096
20
-626.12132034353715
10
-29.060660171811424
20
-612.43933982822
42
0.19891236737962403
10
-30.121320343591083
20
-612
10
-39.607106781185927
20
-612
42
-0.19891236737965523
10
-41.728427124745558
20
-611.12132034355955
10
-46.910407640085189
20
-605.93933982822011
42
0.19891236737965348
10
-47.971067811865012
20
-605.5
10
-57.85735931288086
20
-605.5
42
-0.1989123673796542
10
-59.97867965644047
20
-604.62132034355955
10
-62.560660171780128
20
-602.03933982822014
42
0.19891236737965132
10
-63.621320343559937
20
-601.59999999999991
10
-76.37867965644044
20
-601.59999999999991
42
0.19891236737965151
10
-77.439339828220255
20
-602.03933982822014
10
-79.560660171779887
20
-604.1606601717798
42
0.19891236737965476
10
-80.000000000000057
20
-605.22132034355957
10
-80.000000000000057
20
-628.5
42
0.41421356237309159
10
-78.500000000000071
20
-629.99999999999989
10
-68.742640687119334
20
-629.99999999999989
42
-0.19891236737965523
10
-66.621320343559702
20
-630.87867965644034
10
-59.378679656441669
20
-638.1213203435583
42
-0.19891236737966078
10
-58.500000000001293
20
-640.24264068711796
10
-58.500000000001293
20
-659.3786796564176
42
0.19891236737965146
10
-58.060660171781144
20
-660.43933982819738
10
-54.939339828221485
20
-663.56066017175704
42
0.1989123673796582
10
-53.878679656441676
20
-663.99999999997715
10
29.77867965644586
20
-663.99999999997715
42
0.19891236737872056
10
30.839339828221846
20
-663.5606601717609
10
32.960660171778358
20
-661.43933982821977
42
0.19891236738061732
10
33.40000000000235
20
-660.37867965643602
0
LWPOLYLINE
5
102
100
AcDbEntity
8
0
100
AcDbPolyline
90
4
70
1
43
0.0
10
-72.550000000000068
20
-608.59999999999991
10
-72.550000000000068
20
-607.59999999999991
42
-0.99999999999999989
10
-67.45000000000006
20
-607.59999999999991
10
-67.450000000000074
20
-608.59999999999991
42
-0.99999999999999989
0
LWPOLYLINE
5
103
100
AcDbEntity
8
0
100
AcDbPolyline
90
6
70
1
43
0.0
10
-23.70000000001269
20
-632.69999999998868
10
10.999999999987311
20
-632.69999999998868
10
10.999999999987303
20
-637.99999999998863
10
-23.700000000012693
20
-637.99999999998863
42
-0.41421356237309503
10
-26.000000000012694
20
-635.69999999998868
10
-26.000000000012658
20
-634.99999999998863
42
-0.41421356237309503
0
LWPOLYLINE
5
104
100
AcDbEntity
8
0
100
AcDbPolyline
90
4
70
1
43
0.0
10
-67.450000000000074
20
-622.99999999999977
42
0.99999999999999989
10
-72.550000000000082
20
-623
10
-72.550000000000068
20
-624
42
0.99999999999999989
10
-67.45000000000006
20
-623.99999999999989
0
LWPOLYLINE
5
105
100
AcDbEntity
8
0
100
AcDbPolyline
90
8
70
1
43
0.0
10
-47.000000000000107
20
-621.49999999999989
10
-48.500000000000092
20
-621.5
42
-0.41421356237309503
10
-49.500000000000092
20
-620.5
10
-49.500000000000036
20
-611.49999999999989
42
-0.41421356237308982
10
-48.500000000000114
20
-610.5
10
-47.000000000000107
20
-610.49999999999989
42
-0.41421356237309503
10
-46.000000000000114
20
-611.49999999999989
10
-46.000000000000163
20
-620.5
42
-0.41421356237309503
0
LWPOLYLINE
5
106
100
AcDbEntity
8
0
100
AcDbPolyline
90
4
70
1
43
0.0
10
-58.620000000000047
20
-621.49999999999989
10
-61.000000000000071
20
-621.49999999999989
10
-61.000000000000071
20
-610.49999999999977
10
-58.620000000000047
20
-610.49999999999977
0
LWPOLYLINE
5
107
100
AcDbEntity
8
0
100
AcDbPolyline
90
4
70
1
43
0.0
10
-55.450000000000117
20
-621.49999999999989
10
-55.450000000000117
20
-610.49999999999977
10
-53.250000000000128
20
-610.49999999999977
10
-53.250000000000128
20
-621.5
0
CIRCLE
5
108
100
AcDbEntity
8
0
100
AcDbCircle
10
-28.865626832254485
20
-617.02000000000885
30
2.2204460492503131e-15
40
1.2500000000000089
210
6.7833213790376462e-167
220
2.4439490907996832e-150
230
1
0
CIRCLE
5
109
100
AcDbEntity
8
0
100
AcDbCircle
10
-46.134373167770889
20
-627.49999999998931
30
2.2204460492503131e-15
40
1.2500000000000089
210
6.7833213790376462e-167
220
2.4439490907996832e-150
230
1
0
CIRCLE
5
110
100
AcDbEntity
8
0
100
AcDbCircle
10
-37.50000000001269
20
-622.25999999999908
30
2.2204460492503131e-15
40
6.5150000000000041
210
6.7833213790376462e-167
220
2.4439490907996832e-150
230
1
0
CIRCLE
5
111
100
AcDbEntity
8
0
100
AcDbCircle
10
11.000000000002609
20
-653.99999999999864
30
2.2204460492503131e-15
40
2.5499999999999998
210
6.7833213790376462e-167
220
2.4439490907996832e-150
230
1
0
CIRCLE
5
112
100
AcDbEntity
8
0
100
AcDbCircle
10
27.40000000000235
20
-653.99999999999875
30
2.2204460492503131e-15
40
2.5499999999999989
210
6.7833213790376462e-167
220
2.4439490907996832e-150
230
1
0
CIRCLE
5
113
100
AcDbEntity
8
0
100
AcDbCircle
10
-53.000000000012221
20
-627.49999999998931
30
2.2204460492503131e-15
40
1.5500000000000025
210
6.7833213790376462e-167
220
2.4439490907996832e-150
230
1
0
CIRCLE
5
114
100
AcDbEntity
8
0
100
AcDbCircle
10
-22.000000000012708
20
-627.49999999998977
30
2.2204460492503131e-15
40
1.549999999999998
210
6.7833213790376462e-167
220
2.4439490907996832e-150
230
1
0
CIRCLE
5
115
100
AcDbEntity
8
0
100
AcDbCircle
10
-22.000000000013134
20
-658.49999999998931
30
2.2204460492503131e-15
40
1.549999999999998
210
6.7833213790376462e-167
220
2.4439490907996832e-150
230
1
0
CIRCLE
5
116
100
AcDbEntity
8
0
100
AcDbCircle
10
-53.000000000012683
20
-658.49999999998886
30
2.2204460492503131e-15
40
1.5500000000000025
210
6.7833213790376462e-167
220
2.4439490907996832e-150
230
1
0
CIRCLE
5
117
100
AcDbEntity
8
0
100
AcDbCircle
10
-37.50000000001269
20
-642.99999999998931
30
2.2204460492503131e-15
40
11.050000000000002
210
6.7833213790376462e-167
220
2.4439490907996832e-150
230
1
0
CIRCLE
5
118
100
AcDbEntity
8
0
100
AcDbCircle
10
14.499999999987308
20
-635.49999999998863
30
2.2204460492503131e-15
40
1.25
210
-1.2446030555722283e-60
220
3.4544674220377786e-77
230
1
0
ENDSEC
0
SECTION
2
OBJECTS
0
DICTIONARY
5
C
100
AcDbDictionary
3
ACAD_GROUP
350
D
3
ACAD_MLINESTYLE
350
17
0
DICTIONARY
5
D
100
AcDbDictionary
0
DICTIONARY
5
1A
330
C
100
AcDbDictionary
0
DICTIONARY
5
17
100
AcDbDictionary
0
ENDSEC
0
EOF
