0
SECTION
2
HEADER
9
$INSUNITS
70
4
9
$ACADVER
1
AC1014
9
$HANDSEED
5
FFFF
0
ENDSEC
0
SECTION
2
TABLES
0
TABLE
2
VPORT
5
8
100
AcDbSymbolTable
0
ENDTAB
0
TABLE
2
LTYPE
5
5
100
AcDbSymbolTable
0
LTYPE
5
14
100
AcDbSymbolTableRecord
100
AcDbLinetypeTableRecord
2
BYBLOCK
70
0
0
LTYPE
5
15
100
AcDbSymbolTableRecord
100
AcDbLinetypeTableRecord
2
BYLAYER
70
0
0
ENDTAB
0
TABLE
2
LAYER
5
2
100
AcDbSymbolTable
70
2
0
LAYER
5
50
100
AcDbSymbolTableRecord
100
AcDbLayerTableRecord
2
0
70
0
6
CONTINUOUS
0
ENDTAB
0
TABLE
2
STYLE
5
3
100
AcDbSymbolTable
70
1
0
STYLE
5
11
100
AcDbSymbolTableRecord
100
AcDbTextStyleTableRecord
2
STANDARD
70
0
0
ENDTAB
0
TABLE
2
VIEW
5
6
100
AcDbSymbolTable
70
0
0
ENDTAB
0
TABLE
2
UCS
5
7
100
AcDbSymbolTable
70
0
0
ENDTAB
0
TABLE
2
APPID
5
9
100
AcDbSymbolTable
70
2
0
APPID
5
12
100
AcDbSymbolTableRecord
100
AcDbRegAppTableRecord
2
ACAD
70
0
0
ENDTAB
0
TABLE
2
DIMSTYLE
5
A
100
AcDbSymbolTable
70
1
0
ENDTAB
0
TABLE
2
BLOCK_RECORD
5
1
100
AcDbSymbolTable
70
1
0
BLOCK_RECORD
5
1F
100
AcDbSymbolTableRecord
100
AcDbBlockTableRecord
2
*MODEL_SPACE
0
BLOCK_RECORD
5
1B
100
AcDbSymbolTableRecord
100
AcDbBlockTableRecord
2
*PAPER_SPACE
0
ENDTAB
0
ENDSEC
0
SECTION
2
BLOCKS
0
BLOCK
5
20
100
AcDbEntity
100
AcDbBlockBegin
2
*MODEL_SPACE
0
ENDBLK
5
21
100
AcDbEntity
100
AcDbBlockEnd
0
BLOCK
5
1C
100
AcDbEntity
100
AcDbBlockBegin
2
*PAPER_SPACE
0
ENDBLK
5
1D
100
AcDbEntity
100
AcDbBlockEnd
0
ENDSEC
0
SECTION
2
ENTITIES
0
LWPOLYLINE
5
100
100
AcDbEntity
8
0
100
AcDbPolyline
90
16
70
1
43
0.0
10
-100.78856217223141
20
-640.99999999998875
42
0.18267581368161667
10
-101.11928108611453
20
-641.12499999998863
42
-0.93922053388437499
10
-101.82499999999754
20
-640.41928108610568
42
0.18267581368158473
10
-101.69999999999753
20
-640.08856217222262
10
-101.69999999999753
20
-630.9114378277435
42
0.18267581368160615
10
-101.8249999999976
20
-630.58071891386032
42
-0.93922053388438509
10
-101.11928108611448
20
-629.87499999997726
42
0.18267581368161667
10
-100.78856217223141
20
-629.99999999997726
10
-97.511437827763672
20
-629.99999999997726
42
0.18267581368159244
10
-97.180718913880568
20
-629.87499999997726
42
-0.93922053388441806
10
-96.474999999997536
20
-630.58071891386032
42
0.18267581368161226
10
-96.599999999997536
20
-630.9114378277435
10
-96.599999999997536
20
-640.08856217222262
42
0.18267581368159075
10
-96.474999999997465
20
-640.41928108610546
42
-0.93922053388436377
10
-97.180718913880611
20
-641.12499999998875
42
0.18267581368161667
10
-97.511437827763672
20
-640.99999999998875
0
LWPOLYLINE
5
101
100
AcDbEntity
8
0
100
AcDbPolyline
90
32
70
1
43
0.0
10
-91.599999999997536
20
-628.49999999997726
42
0.41421356237309503
10
-93.099999999997536
20
-626.99999999997726
10
-138.25735931293065
20
-626.99999999997726
42
-0.19891236737961876
10
-140.37867965648996
20
-626.12132034353726
10
-154.06066017181132
20
-612.43933982822
42
0.19891236737961229
10
-155.12132034359095
20
-612
10
-164.60710678118585
20
-612
42
-0.19891236737965362
10
-166.72842712474545
20
-611.12132034355966
10
-171.91040764008508
20
-605.93933982822011
42
0.19891236737964935
10
-172.97106781186488
20
-605.5
10
-182.85735931288076
20
-605.5
42
-0.19891236737965143
10
-184.97867965644033
20
-604.62132034355966
10
-187.56066017178003
20
-602.03933982822014
42
0.19891236737964935
10
-188.62132034355983
20
-601.59999999999991
10
-201.37867965644034
20
-601.59999999999991
42
0.1989123673796537
10
-202.43933982822017
20
-602.03933982822014
10
-204.56066017177983
20
-604.1606601717798
42
0.19891236737965359
10
-204.99999999999997
20
-605.22132034355968
10
-204.99999999999997
20
-628.5
42
0.41421356237309503
10
-203.49999999999997
20
-630
10
-193.74264068711923
20
-630
42
-0.1989123673796602
10
-191.6213203435596
20
-630.87867965644034
10
-184.37867965644153
20
-638.12132034355841
42
-0.19891236737965581
10
-183.50000000000119
20
-640.24264068711796
10
-183.50000000000119
20
-659.3786796564176
42
0.19891236737965359
10
-183.06066017178102
20
-660.43933982819738
10
-179.93933982822139
20
-663.56066017175704
42
0.19891236737966236
10
-178.87867965644153
20
-663.99999999997726
10
-95.221320343554027
20
-663.99999999997726
42
0.19891236737872006
10
-94.160660171778048
20
-663.5606601717609
10
-92.039339828221529
20
-661.43933982821977
42
0.19891236738059381
10
-91.599999999997536
20
-660.37867965643613
0
LWPOLYLINE
5
102
100
AcDbEntity
8
0
100
AcDbPolyline
90
4
70
1
43
0.0
10
-197.54999999999998
20
-608.60000000000002
10
-197.54999999999995
20
-607.60000000000002
42
-0.99999999999999989
10
-192.44999999999999
20
-607.60000000000002
10
-192.45000000000002
20
-608.60000000000002
42
-0.99999999999999989
0
LWPOLYLINE
5
103
100
AcDbEntity
8
0
100
AcDbPolyline
90
6
70
1
43
0.0
10
-148.70000000001258
20
-632.69999999998868
10
-114.00000000001258
20
-632.69999999998868
10
-114.00000000001259
20
-637.99999999998875
10
-148.70000000001258
20
-637.99999999998875
42
-0.41421356237309503
10
-151.00000000001259
20
-635.69999999998868
10
-151.00000000001256
20
-634.99999999998875
42
-0.41421356237309503
0
LWPOLYLINE
5
104
100
AcDbEntity
8
0
100
AcDbPolyline
90
4
70
1
43
0.0
10
-192.44999999999999
20
-623
42
0.99999999999999989
10
-197.54999999999998
20
-623
10
-197.54999999999995
20
-624
42
0.99999999999999989
10
-192.44999999999999
20
-623.99999999999989
0
LWPOLYLINE
5
105
100
AcDbEntity
8
0
100
AcDbPolyline
90
8
70
1
43
0.0
10
-172.00000000000003
20
-621.5
10
-173.5
20
-621.49999999999989
42
-0.41421356237309503
10
-174.5
20
-620.5
10
-174.50000000000003
20
-611.5
42
-0.41421356237309503
10
-173.5
20
-610.5
10
-172.00000000000003
20
-610.5
42
-0.41421356237309503
10
-171
20
-611.5
10
-171
20
-620.5
42
-0.41421356237309503
0
LWPOLYLINE
5
106
100
AcDbEntity
8
0
100
AcDbPolyline
90
4
70
1
43
0.0
10
-183.61999999999995
20
-621.5
10
-185.99999999999997
20
-621.5
10
-185.99999999999997
20
-610.49999999999977
10
-183.61999999999995
20
-610.49999999999977
0
LWPOLYLINE
5
107
100
AcDbEntity
8
0
100
AcDbPolyline
90
4
70
1
43
0.0
10
-180.45000000000002
20
-621.5
10
-180.45000000000002
20
-610.49999999999977
10
-178.25000000000003
20
-610.49999999999989
10
-178.25000000000003
20
-621.5
0
CIRCLE
5
108
100
AcDbEntity
8
0
100
AcDbCircle
10
-162.50000000001256
20
-633.39999999998906
30
0
40
1.2500000000000044
210
-3.5032461608120427e-46
220
-1.3929669041753274e-36
230
1
0
CIRCLE
5
109
100
AcDbEntity
8
0
100
AcDbCircle
10
-162.50000000001256
20
-652.59999999998956
30
0
40
1.2500000000000044
210
-3.5032461608120427e-46
220
-1.3929669041753274e-36
230
1
0
CIRCLE
5
110
100
AcDbEntity
8
0
100
AcDbCircle
10
-153.86562683225438
20
-617.02000000000896
30
0
40
1.2500000000000089
210
2.5469097409200129e-72
220
-1.3929669041753274e-36
230
1
0
CIRCLE
5
111
100
AcDbEntity
8
0
100
AcDbCircle
10
-171.1343731677708
20
-627.49999999998931
30
0
40
1.2500000000000089
210
2.5469097409200129e-72
220
-1.3929669041753274e-36
230
1
0
CIRCLE
5
112
100
AcDbEntity
8
0
100
AcDbCircle
10
-162.50000000001256
20
-622.25999999999908
30
0
40
6.5150000000000041
210
2.5469097409200129e-72
220
-1.3929669041753274e-36
230
1
0
CIRCLE
5
113
100
AcDbEntity
8
0
100
AcDbCircle
10
-113.99999999999729
20
-653.99999999999875
30
0
40
2.5499999999999998
210
2.5469097409200129e-72
220
-1.3929669041753274e-36
230
1
0
CIRCLE
5
114
100
AcDbEntity
8
0
100
AcDbCircle
10
-97.599999999997522
20
-653.99999999999875
30
0
40
2.5499999999999989
210
2.5469097409200129e-72
220
-1.3929669041753274e-36
230
1
0
CIRCLE
5
115
100
AcDbEntity
8
0
100
AcDbCircle
10
-178.00000000001211
20
-627.49999999998931
30
0
40
1.5500000000000025
210
2.5469097409200129e-72
220
-1.3929669041753274e-36
230
1
0
CIRCLE
5
116
100
AcDbEntity
8
0
100
AcDbCircle
10
-147.00000000001262
20
-627.49999999998977
30
0
40
1.549999999999998
210
2.5469097409200129e-72
220
-1.3929669041753274e-36
230
1
0
CIRCLE
5
117
100
AcDbEntity
8
0
100
AcDbCircle
10
-147.00000000001302
20
-658.49999999998931
30
0
40
1.549999999999998
210
2.5469097409200129e-72
220
-1.3929669041753274e-36
230
1
0
CIRCLE
5
118
100
AcDbEntity
8
0
100
AcDbCircle
10
-178.00000000001259
20
-658.49999999998886
30
0
40
1.5500000000000025
210
2.5469097409200129e-72
220
-1.3929669041753274e-36
230
1
0
CIRCLE
5
119
100
AcDbEntity
8
0
100
AcDbCircle
10
-162.50000000001256
20
-642.99999999998931
30
0
40
6.5150000000000041
210
2.5469097409200129e-72
220
-1.3929669041753274e-36
230
1
0
CIRCLE
5
120
100
AcDbEntity
8
0
100
AcDbCircle
10
-110.50000000001259
20
-635.49999999998863
30
0
40
1.25
210
-1.2446030555696814e-60
220
-1.3929669041753274e-36
230
1
0
ENDSEC
0
SECTION
2
OBJECTS
0
DICTIONARY
5
C
100
AcDbDictionary
3
ACAD_GROUP
350
D
3
ACAD_MLINESTYLE
350
17
0
DICTIONARY
5
D
100
AcDbDictionary
0
DICTIONARY
5
1A
330
C
100
AcDbDictionary
0
DICTIONARY
5
17
100
AcDbDictionary
0
ENDSEC
0
EOF
