0
SECTION
2
HEADER
9
$INSUNITS
70
4
9
$ACADVER
1
AC1014
9
$HANDSEED
5
FFFF
0
ENDSEC
0
SECTION
2
TABLES
0
TABLE
2
VPORT
5
8
100
AcDbSymbolTable
0
ENDTAB
0
TABLE
2
LTYPE
5
5
100
AcDbSymbolTable
0
LTYPE
5
14
100
AcDbSymbolTableRecord
100
AcDbLinetypeTableRecord
2
BYBLOCK
70
0
0
LTYPE
5
15
100
AcDbSymbolTableRecord
100
AcDbLinetypeTableRecord
2
BYLAYER
70
0
0
ENDTAB
0
TABLE
2
LAYER
5
2
100
AcDbSymbolTable
70
2
0
LAYER
5
50
100
AcDbSymbolTableRecord
100
AcDbLayerTableRecord
2
0
70
0
6
CONTINUOUS
0
ENDTAB
0
TABLE
2
STYLE
5
3
100
AcDbSymbolTable
70
1
0
STYLE
5
11
100
AcDbSymbolTableRecord
100
AcDbTextStyleTableRecord
2
STANDARD
70
0
0
ENDTAB
0
TABLE
2
VIEW
5
6
100
AcDbSymbolTable
70
0
0
ENDTAB
0
TABLE
2
UCS
5
7
100
AcDbSymbolTable
70
0
0
ENDTAB
0
TABLE
2
APPID
5
9
100
AcDbSymbolTable
70
2
0
APPID
5
12
100
AcDbSymbolTableRecord
100
AcDbRegAppTableRecord
2
ACAD
70
0
0
ENDTAB
0
TABLE
2
DIMSTYLE
5
A
100
AcDbSymbolTable
70
1
0
ENDTAB
0
TABLE
2
BLOCK_RECORD
5
1
100
AcDbSymbolTable
70
1
0
BLOCK_RECORD
5
1F
100
AcDbSymbolTableRecord
100
AcDbBlockTableRecord
2
*MODEL_SPACE
0
BLOCK_RECORD
5
1B
100
AcDbSymbolTableRecord
100
AcDbBlockTableRecord
2
*PAPER_SPACE
0
ENDTAB
0
ENDSEC
0
SECTION
2
BLOCKS
0
BLOCK
5
20
100
AcDbEntity
100
AcDbBlockBegin
2
*MODEL_SPACE
0
ENDBLK
5
21
100
AcDbEntity
100
AcDbBlockEnd
0
BLOCK
5
1C
100
AcDbEntity
100
AcDbBlockBegin
2
*PAPER_SPACE
0
ENDBLK
5
1D
100
AcDbEntity
100
AcDbBlockEnd
0
ENDSEC
0
SECTION
2
ENTITIES
0
LWPOLYLINE
5
100
100
AcDbEntity
8
0
100
AcDbPolyline
90
16
70
1
43
0.0
10
24.21143782776852
20
-640.99999999998875
42
0.18267581368161495
10
23.880718913885389
20
-641.12499999998863
42
-0.93922053388438331
10
23.175000000002388
20
-640.41928108610568
42
0.1826758136815832
10
23.300000000002385
20
-640.08856217222262
10
23.300000000002385
20
-630.9114378277435
42
0.18267581368160921
10
23.175000000002321
20
-630.58071891386032
42
-0.93922053388438376
10
23.880718913885453
20
-629.87499999997726
42
0.18267581368161667
10
24.21143782776852
20
-629.99999999997726
10
27.48856217223625
20
-629.99999999997726
42
0.18267581368159072
10
27.819281086119339
20
-629.87499999997726
42
-0.93922053388442306
10
28.52500000000239
20
-630.58071891386032
42
0.18267581368161223
10
28.400000000002386
20
-630.9114378277435
10
28.400000000002386
20
-640.08856217222262
42
0.18267581368158625
10
28.525000000002461
20
-640.41928108610546
42
-0.9392205338843721
10
27.819281086119318
20
-641.12499999998875
42
0.18267581368161667
10
27.48856217223625
20
-640.99999999998875
0
LWPOLYLINE
5
101
100
AcDbEntity
8
0
100
AcDbPolyline
90
32
70
1
43
0.0
10
33.400000000002386
20
-628.49999999997726
42
0.41421356237309503
10
31.900000000002386
20
-626.99999999997726
10
-13.257359312930728
20
-626.99999999997726
42
-0.19891236737961854
10
-15.378679656490043
20
-626.12132034353726
10
-29.060660171811389
20
-612.43933982822
42
0.19891236737961229
10
-30.12132034359103
20
-612
10
-39.607106781185898
20
-612
42
-0.1989123673796542
10
-41.728427124745508
20
-611.12132034355966
10
-46.910407640085154
20
-605.93933982822011
42
0.1989123673796504
10
-47.971067811864962
20
-605.5
10
-57.857359312880817
20
-605.5
42
-0.19891236737965304
10
-59.978679656440413
20
-604.62132034355966
10
-62.560660171780086
20
-602.03933982822014
42
0.19891236737964824
10
-63.62132034355988
20
-601.59999999999991
10
-76.378679656440397
20
-601.59999999999991
42
0.19891236737965151
10
-77.439339828220227
20
-602.03933982822014
10
-79.560660171779858
20
-604.1606601717798
42
0.19891236737965476
10
-80.000000000000014
20
-605.22132034355968
10
-80.000000000000014
20
-628.5
42
0.41421356237309503
10
-78.500000000000028
20
-630
10
-68.742640687119291
20
-630
42
-0.19891236737966078
10
-66.621320343559645
20
-630.87867965644034
10
-59.378679656441598
20
-638.12132034355841
42
-0.1989123673796564
10
-58.500000000001258
20
-640.24264068711796
10
-58.500000000001258
20
-659.3786796564176
42
0.19891236737965476
10
-58.06066017178108
20
-660.43933982819738
10
-54.939339828221435
20
-663.56066017175704
42
0.19891236737966128
10
-53.878679656441612
20
-663.99999999997726
10
29.778679656445895
20
-663.99999999997726
42
0.19891236737872006
10
30.839339828221878
20
-663.5606601717609
10
32.960660171778393
20
-661.43933982821977
42
0.1989123673805927
10
33.400000000002386
20
-660.37867965643613
0
LWPOLYLINE
5
102
100
AcDbEntity
8
0
100
AcDbPolyline
90
4
70
1
43
0.0
10
-72.55000000000004
20
-608.60000000000002
10
-72.550000000000026
20
-607.60000000000002
42
-0.99999999999999989
10
-67.450000000000031
20
-607.60000000000002
10
-67.450000000000031
20
-608.60000000000002
42
-0.99999999999999989
0
LWPOLYLINE
5
103
100
AcDbEntity
8
0
100
AcDbPolyline
90
6
70
1
43
0.0
10
-23.700000000012654
20
-632.69999999998868
10
10.999999999987347
20
-632.69999999998868
10
10.999999999987338
20
-637.99999999998875
10
-23.700000000012658
20
-637.99999999998863
42
-0.41421356237309503
10
-26.000000000012658
20
-635.69999999998868
10
-26.000000000012623
20
-634.99999999998875
42
-0.41421356237309503
0
LWPOLYLINE
5
104
100
AcDbEntity
8
0
100
AcDbPolyline
90
4
70
1
43
0.0
10
-67.450000000000045
20
-623
42
0.99999999999999989
10
-72.55000000000004
20
-623
10
-72.550000000000026
20
-624
42
0.99999999999999989
10
-67.450000000000031
20
-623.99999999999989
0
LWPOLYLINE
5
105
100
AcDbEntity
8
0
100
AcDbPolyline
90
8
70
1
43
0.0
10
-47.000000000000071
20
-621.5
10
-48.500000000000057
20
-621.5
42
-0.41421356237309503
10
-49.500000000000057
20
-620.5
10
-49.500000000000071
20
-611.5
42
-0.41421356237309503
10
-48.500000000000057
20
-610.5
10
-47.000000000000071
20
-610.5
42
-0.41421356237309503
10
-46.000000000000078
20
-611.5
10
-46.000000000000057
20
-620.5
42
-0.41421356237309503
0
LWPOLYLINE
5
106
100
AcDbEntity
8
0
100
AcDbPolyline
90
4
70
1
43
0.0
10
-58.620000000000012
20
-621.5
10
-61.000000000000028
20
-621.5
10
-61.000000000000028
20
-610.49999999999977
10
-58.620000000000012
20
-610.49999999999977
0
LWPOLYLINE
5
107
100
AcDbEntity
8
0
100
AcDbPolyline
90
4
70
1
43
0.0
10
-55.450000000000081
20
-621.5
10
-55.450000000000081
20
-610.49999999999977
10
-53.250000000000092
20
-610.49999999999989
10
-53.250000000000092
20
-621.5
0
CIRCLE
5
108
100
AcDbEntity
8
0
100
AcDbCircle
10
-37.500000000012655
20
-633.89999999998918
30
2.2204460492503131e-15
40
1.2500000000000044
210
0
220
0
230
1
0
CIRCLE
5
109
100
AcDbEntity
8
0
100
AcDbCircle
10
-37.500000000012655
20
-652.09999999998956
30
2.2204460492503131e-15
40
1.2500000000000044
210
0
220
0
230
1
0
CIRCLE
5
110
100
AcDbEntity
8
0
100
AcDbCircle
10
-28.865626832254449
20
-617.02000000000896
30
2.2204460492503131e-15
40
1.2500000000000089
210
0
220
0
230
1
0
CIRCLE
5
111
100
AcDbEntity
8
0
100
AcDbCircle
10
-46.13437316777086
20
-627.49999999998931
30
2.2204460492503131e-15
40
1.2500000000000089
210
0
220
0
230
1
0
CIRCLE
5
112
100
AcDbEntity
8
0
100
AcDbCircle
10
-37.500000000012655
20
-622.25999999999908
30
2.2204460492503131e-15
40
6.5150000000000041
210
0
220
0
230
1
0
CIRCLE
5
113
100
AcDbEntity
8
0
100
AcDbCircle
10
11.000000000002645
20
-653.99999999999875
30
2.2204460492503131e-15
40
2.5499999999999998
210
0
220
0
230
1
0
CIRCLE
5
114
100
AcDbEntity
8
0
100
AcDbCircle
10
27.400000000002386
20
-653.99999999999875
30
2.2204460492503131e-15
40
2.5499999999999989
210
0
220
0
230
1
0
CIRCLE
5
115
100
AcDbEntity
8
0
100
AcDbCircle
10
-53.000000000012186
20
-627.49999999998931
30
2.2204460492503131e-15
40
1.5500000000000025
210
0
220
0
230
1
0
CIRCLE
5
116
100
AcDbEntity
8
0
100
AcDbCircle
10
-22.000000000012673
20
-627.49999999998977
30
2.2204460492503131e-15
40
1.549999999999998
210
0
220
0
230
1
0
CIRCLE
5
117
100
AcDbEntity
8
0
100
AcDbCircle
10
-22.000000000013099
20
-658.49999999998931
30
2.2204460492503131e-15
40
1.549999999999998
210
0
220
0
230
1
0
CIRCLE
5
118
100
AcDbEntity
8
0
100
AcDbCircle
10
-53.000000000012648
20
-658.49999999998886
30
2.2204460492503131e-15
40
1.5500000000000025
210
0
220
0
230
1
0
CIRCLE
5
119
100
AcDbEntity
8
0
100
AcDbCircle
10
-37.500000000012655
20
-642.99999999998931
30
2.2204460492503131e-15
40
6.5150000000000041
210
0
220
0
230
1
0
CIRCLE
5
120
100
AcDbEntity
8
0
100
AcDbCircle
10
14.499999999987343
20
-635.49999999998863
30
2.2204460492503131e-15
40
1.25
210
-1.2446030555722283e-60
220
-3.7061282447430967e-105
230
1
0
ENDSEC
0
SECTION
2
OBJECTS
0
DICTIONARY
5
C
100
AcDbDictionary
3
ACAD_GROUP
350
D
3
ACAD_MLINESTYLE
350
17
0
DICTIONARY
5
D
100
AcDbDictionary
0
DICTIONARY
5
1A
330
C
100
AcDbDictionary
0
DICTIONARY
5
17
100
AcDbDictionary
0
ENDSEC
0
EOF
