0
SECTION
2
HEADER
9
$INSUNITS
70
4
9
$ACADVER
1
AC1014
9
$HANDSEED
5
FFFF
0
ENDSEC
0
SECTION
2
TABLES
0
TABLE
2
VPORT
5
8
100
AcDbSymbolTable
0
ENDTAB
0
TABLE
2
LTYPE
5
5
100
AcDbSymbolTable
0
LTYPE
5
14
100
AcDbSymbolTableRecord
100
AcDbLinetypeTableRecord
2
BYBLOCK
70
0
0
LTYPE
5
15
100
AcDbSymbolTableRecord
100
AcDbLinetypeTableRecord
2
BYLAYER
70
0
0
ENDTAB
0
TABLE
2
LAYER
5
2
100
AcDbSymbolTable
70
2
0
LAYER
5
50
100
AcDbSymbolTableRecord
100
AcDbLayerTableRecord
2
0
70
0
6
CONTINUOUS
0
ENDTAB
0
TABLE
2
STYLE
5
3
100
AcDbSymbolTable
70
1
0
STYLE
5
11
100
AcDbSymbolTableRecord
100
AcDbTextStyleTableRecord
2
STANDARD
70
0
0
ENDTAB
0
TABLE
2
VIEW
5
6
100
AcDbSymbolTable
70
0
0
ENDTAB
0
TABLE
2
UCS
5
7
100
AcDbSymbolTable
70
0
0
ENDTAB
0
TABLE
2
APPID
5
9
100
AcDbSymbolTable
70
2
0
APPID
5
12
100
AcDbSymbolTableRecord
100
AcDbRegAppTableRecord
2
ACAD
70
0
0
ENDTAB
0
TABLE
2
DIMSTYLE
5
A
100
AcDbSymbolTable
70
1
0
ENDTAB
0
TABLE
2
BLOCK_RECORD
5
1
100
AcDbSymbolTable
70
1
0
BLOCK_RECORD
5
1F
100
AcDbSymbolTableRecord
100
AcDbBlockTableRecord
2
*MODEL_SPACE
0
BLOCK_RECORD
5
1B
100
AcDbSymbolTableRecord
100
AcDbBlockTableRecord
2
*PAPER_SPACE
0
ENDTAB
0
ENDSEC
0
SECTION
2
BLOCKS
0
BLOCK
5
20
100
AcDbEntity
100
AcDbBlockBegin
2
*MODEL_SPACE
0
ENDBLK
5
21
100
AcDbEntity
100
AcDbBlockEnd
0
BLOCK
5
1C
100
AcDbEntity
100
AcDbBlockBegin
2
*PAPER_SPACE
0
ENDBLK
5
1D
100
AcDbEntity
100
AcDbBlockEnd
0
ENDSEC
0
SECTION
2
ENTITIES
0
LWPOLYLINE
5
100
100
AcDbEntity
8
0
100
AcDbPolyline
90
31
70
1
43
0.0
10
704.56066017177977
20
-301.93933982822017
42
0.19891236737965801
10
704.99999999999989
20
-300.87867965644034
10
704.99999999999989
20
-271.49999999999994
42
0.41421356237309503
10
703.5
20
-269.99999999999994
10
683.50000000000125
20
-269.99999999999994
10
683.50000000000114
20
-250.62132034358484
42
0.19891236737965801
10
683.06066017178091
20
-249.56066017180504
10
679.93933982822125
20
-246.43933982824538
42
0.19891236737965362
10
678.87867965644148
20
-246.00000000002521
10
646.12132034364845
20
-246.00000000002524
42
0.19891236737965359
10
645.06066017186868
20
-246.43933982824538
10
641.93933982830902
20
-249.56066017180504
42
0.19891236737964493
10
641.5000000000889
20
-250.62132034358487
10
641.5000000000889
20
-283.37867965644023
42
0.19891236737964493
10
641.93933982830902
20
-284.43933982822006
10
645.06066017186868
20
-287.56066017177966
42
0.19891236737965362
10
646.12132034364845
20
-287.99999999999989
10
651.40075759610158
20
-287.99999999999983
42
-0.19891236737965362
10
653.52207793966113
20
-288.87867965644017
10
654.7040584550216
20
-290.06066017180052
42
0.19891236737968257
10
655.76471862680148
20
-290.50000000002069
10
657.10710678120734
20
-290.50000000002069
42
-0.19891236737967036
10
659.22842712476711
20
-291.37867965646109
10
669.91040764008528
20
-302.06066017177977
42
0.19891236737967544
10
670.97106781186528
20
-302.49999999999994
10
684.75735931288057
20
-302.49999999999994
42
-0.19891236737965581
10
686.87867965644023
20
-303.37867965644028
10
687.56066017177977
20
-304.06066017177983
42
0.19891236737965362
10
688.62132034355955
20
-304.5
10
701.37867965644023
20
-304.5
42
0.19891236737967113
10
702.43933982822011
20
-304.06066017177983
0
LWPOLYLINE
5
101
100
AcDbEntity
8
0
100
AcDbPolyline
90
4
70
1
43
0.0
10
697.5499999999995
20
-295.49999999999892
42
0.99999999999999989
10
692.44999999999959
20
-295.50000000000085
10
692.45000000000005
20
-296.50000000000102
42
0.99999999999999989
10
697.55000000000007
20
-296.49999999999875
0
LWPOLYLINE
5
102
100
AcDbEntity
8
0
100
AcDbPolyline
90
4
70
1
43
0.0
10
697.54999999999995
20
-278.49999999999994
10
697.54999999999995
20
-279.49999999999994
42
-0.99999999999999989
10
692.45000000000005
20
-279.49999999999994
10
692.45000000000005
20
-278.49999999999994
42
-0.99999999999999989
0
CIRCLE
5
103
100
AcDbEntity
8
0
100
AcDbCircle
10
-646.50000000008833
20
-267.00000000002495
30
1.4823173002029422e-42
40
1.5500000000000014
210
-2.2071863412372666e-47
220
-5.6051938572992633e-45
230
-1
0
CIRCLE
5
104
100
AcDbEntity
8
0
100
AcDbCircle
10
-678.00000000008015
20
-251.5000000000208
30
1.4097062551108824e-42
40
1.5500000000000025
210
1.5557538194651423e-60
220
-5.6051938572992633e-45
230
-1
0
CIRCLE
5
105
100
AcDbEntity
8
0
100
AcDbCircle
10
-647.00000000006798
20
-251.50000000000861
30
1.4097062551108141e-42
40
1.549999999999998
210
1.5557538194651423e-60
220
-5.6051938572992633e-45
230
-1
0
CIRCLE
5
106
100
AcDbEntity
8
0
100
AcDbCircle
10
-662.50000000006798
20
-267.0000000000208
30
1.4965867598990209e-42
40
11.050000000000002
210
1.5557538194651423e-60
220
-5.6051938572992633e-45
230
-1
0
CIRCLE
5
107
100
AcDbEntity
8
0
100
AcDbCircle
10
-647.00000000005571
20
-282.5000000000208
30
1.5834672646871593e-42
40
1.549999999999998
210
1.5557538194651423e-60
220
-5.6051938572992633e-45
230
-1
0
CIRCLE
5
108
100
AcDbEntity
8
0
100
AcDbCircle
10
-658.25000000104001
20
-283.00000000002069
30
1.5862698616158086e-42
40
1.549999999999998
210
1.5557538194651423e-60
220
-5.6051938572992633e-45
230
-1
0
CIRCLE
5
109
100
AcDbEntity
8
0
100
AcDbCircle
10
-678.00000000006787
20
-282.50000000003303
30
1.5834672646872278e-42
40
1.5500000000000025
210
1.5557538194651423e-60
220
-5.6051938572992633e-45
230
-1
0
ENDSEC
0
SECTION
2
OBJECTS
0
DICTIONARY
5
C
100
AcDbDictionary
3
ACAD_GROUP
350
D
3
ACAD_MLINESTYLE
350
17
0
DICTIONARY
5
D
100
AcDbDictionary
0
DICTIONARY
5
1A
330
C
100
AcDbDictionary
0
DICTIONARY
5
17
100
AcDbDictionary
0
ENDSEC
0
EOF
