0
SECTION
2
HEADER
9
$INSUNITS
70
4
9
$ACADVER
1
AC1014
9
$HANDSEED
5
FFFF
0
ENDSEC
0
SECTION
2
TABLES
0
TABLE
2
VPORT
5
8
100
AcDbSymbolTable
0
ENDTAB
0
TABLE
2
LTYPE
5
5
100
AcDbSymbolTable
0
LTYPE
5
14
100
AcDbSymbolTableRecord
100
AcDbLinetypeTableRecord
2
BYBLOCK
70
0
0
LTYPE
5
15
100
AcDbSymbolTableRecord
100
AcDbLinetypeTableRecord
2
BYLAYER
70
0
0
ENDTAB
0
TABLE
2
LAYER
5
2
100
AcDbSymbolTable
70
2
0
LAYER
5
50
100
AcDbSymbolTableRecord
100
AcDbLayerTableRecord
2
0
70
0
6
CONTINUOUS
0
ENDTAB
0
TABLE
2
STYLE
5
3
100
AcDbSymbolTable
70
1
0
STYLE
5
11
100
AcDbSymbolTableRecord
100
AcDbTextStyleTableRecord
2
STANDARD
70
0
0
ENDTAB
0
TABLE
2
VIEW
5
6
100
AcDbSymbolTable
70
0
0
ENDTAB
0
TABLE
2
UCS
5
7
100
AcDbSymbolTable
70
0
0
ENDTAB
0
TABLE
2
APPID
5
9
100
AcDbSymbolTable
70
2
0
APPID
5
12
100
AcDbSymbolTableRecord
100
AcDbRegAppTableRecord
2
ACAD
70
0
0
ENDTAB
0
TABLE
2
DIMSTYLE
5
A
100
AcDbSymbolTable
70
1
0
ENDTAB
0
TABLE
2
BLOCK_RECORD
5
1
100
AcDbSymbolTable
70
1
0
BLOCK_RECORD
5
1F
100
AcDbSymbolTableRecord
100
AcDbBlockTableRecord
2
*MODEL_SPACE
0
BLOCK_RECORD
5
1B
100
AcDbSymbolTableRecord
100
AcDbBlockTableRecord
2
*PAPER_SPACE
0
ENDTAB
0
ENDSEC
0
SECTION
2
BLOCKS
0
BLOCK
5
20
100
AcDbEntity
100
AcDbBlockBegin
2
*MODEL_SPACE
0
ENDBLK
5
21
100
AcDbEntity
100
AcDbBlockEnd
0
BLOCK
5
1C
100
AcDbEntity
100
AcDbBlockBegin
2
*PAPER_SPACE
0
ENDBLK
5
1D
100
AcDbEntity
100
AcDbBlockEnd
0
ENDSEC
0
SECTION
2
ENTITIES
0
LWPOLYLINE
5
100
100
AcDbEntity
8
0
100
AcDbPolyline
90
4
70
1
43
0.0
10
-692.45000000000005
20
221.5
42
0.99999999999999989
10
-697.54999999999995
20
221.5
10
-697.54999999999995
20
220.5
42
0.99999999999999989
10
-692.45000000000005
20
220.5
0
LWPOLYLINE
5
101
100
AcDbEntity
8
0
100
AcDbPolyline
90
4
70
1
43
0.0
10
-697.54999999999995
20
203.5
42
0.99999999999999989
10
-692.45000000000005
20
203.49999999999883
10
-692.44999999999959
20
204.49999999999903
42
0.99999999999999989
10
-697.5499999999995
20
204.50000000000097
0
LWPOLYLINE
5
102
100
AcDbEntity
8
0
100
AcDbPolyline
90
27
70
1
43
0.0
10
-688.62132034355966
20
195.5
42
0.19891236737967113
10
-687.56066017177977
20
195.9393398282202
10
-686.87867965644034
20
196.62132034355966
42
-0.19891236737965581
10
-684.75735931288068
20
197.5
10
-670.97106781186528
20
197.5
42
0.19891236737965801
10
-669.9104076400854
20
197.93933982822017
10
-665.18933982923181
20
202.66040763907384
42
0.19891236737965801
10
-664.75000000101181
20
203.72106781085364
10
-664.75000000101181
20
223.41968978319602
42
-0.1989123673796602
10
-663.87132034457136
20
225.54101012675568
10
-661.92933982923194
20
227.4829906420951
42
0.19891236737966234
10
-661.49000000101182
20
228.54365081387496
10
-661.49000000101182
20
242.65634918608302
42
0.19891236737965801
10
-661.92933982923194
20
243.71700935786282
10
-666.77299064314877
20
248.56066017177983
42
0.19891236737967105
10
-667.83365081492877
20
249
10
-679.87867965644159
20
249
42
0.19891236737965359
10
-680.93933982822136
20
248.56066017177983
10
-684.56066017178102
20
244.93933982822023
42
0.19891236737966234
10
-685.00000000000114
20
243.87867965644037
10
-685.00000000000114
20
230
10
-703.5
20
230
42
0.41421356237309503
10
-705
20
228.5
10
-705
20
199.12132034355963
42
0.19891236737965803
10
-704.56066017177977
20
198.06066017177983
10
-702.43933982822011
20
195.9393398282202
42
0.19891236737965362
10
-701.37867965644034
20
195.5
0
CIRCLE
5
103
100
AcDbEntity
8
0
100
AcDbCircle
10
-671.49000000101171
20
245.19999999997896
30
2.2204460492503131e-15
40
1.25
210
0
220
1.4012984643248171e-45
230
1
0
CIRCLE
5
104
100
AcDbEntity
8
0
100
AcDbCircle
10
-671.49000000101171
20
225.99999999997897
30
2.2204460492503131e-15
40
1.25
210
0
220
1.4012984643248171e-45
230
1
0
CIRCLE
5
105
100
AcDbEntity
8
0
100
AcDbCircle
10
-679.00000000000114
20
244.5
30
0
40
1.5500000000000003
210
0
220
1.4012984643248171e-45
230
1
0
CIRCLE
5
106
100
AcDbEntity
8
0
100
AcDbCircle
10
-671.49000000101171
20
235.59999999997899
30
0
40
6.5149999999999952
210
0
220
1.4012984643248171e-45
230
1
0
CIRCLE
5
107
100
AcDbEntity
8
0
100
AcDbCircle
10
-675.74000000045612
20
219.6000000000117
30
0
40
1.5500000000000025
210
0
220
1.4012984643248171e-45
230
1
0
ENDSEC
0
SECTION
2
OBJECTS
0
DICTIONARY
5
C
100
AcDbDictionary
3
ACAD_GROUP
350
D
3
ACAD_MLINESTYLE
350
17
0
DICTIONARY
5
D
100
AcDbDictionary
0
DICTIONARY
5
1A
330
C
100
AcDbDictionary
0
DICTIONARY
5
17
100
AcDbDictionary
0
ENDSEC
0
EOF
