0
SECTION
2
HEADER
9
$INSUNITS
70
4
9
$ACADVER
1
AC1014
9
$HANDSEED
5
FFFF
0
ENDSEC
0
SECTION
2
TABLES
0
TABLE
2
VPORT
5
8
100
AcDbSymbolTable
0
ENDTAB
0
TABLE
2
LTYPE
5
5
100
AcDbSymbolTable
0
LTYPE
5
14
100
AcDbSymbolTableRecord
100
AcDbLinetypeTableRecord
2
BYBLOCK
70
0
0
LTYPE
5
15
100
AcDbSymbolTableRecord
100
AcDbLinetypeTableRecord
2
BYLAYER
70
0
0
ENDTAB
0
TABLE
2
LAYER
5
2
100
AcDbSymbolTable
70
2
0
LAYER
5
50
100
AcDbSymbolTableRecord
100
AcDbLayerTableRecord
2
0
70
0
6
CONTINUOUS
0
ENDTAB
0
TABLE
2
STYLE
5
3
100
AcDbSymbolTable
70
1
0
STYLE
5
11
100
AcDbSymbolTableRecord
100
AcDbTextStyleTableRecord
2
STANDARD
70
0
0
ENDTAB
0
TABLE
2
VIEW
5
6
100
AcDbSymbolTable
70
0
0
ENDTAB
0
TABLE
2
UCS
5
7
100
AcDbSymbolTable
70
0
0
ENDTAB
0
TABLE
2
APPID
5
9
100
AcDbSymbolTable
70
2
0
APPID
5
12
100
AcDbSymbolTableRecord
100
AcDbRegAppTableRecord
2
ACAD
70
0
0
ENDTAB
0
TABLE
2
DIMSTYLE
5
A
100
AcDbSymbolTable
70
1
0
ENDTAB
0
TABLE
2
BLOCK_RECORD
5
1
100
AcDbSymbolTable
70
1
0
BLOCK_RECORD
5
1F
100
AcDbSymbolTableRecord
100
AcDbBlockTableRecord
2
*MODEL_SPACE
0
BLOCK_RECORD
5
1B
100
AcDbSymbolTableRecord
100
AcDbBlockTableRecord
2
*PAPER_SPACE
0
ENDTAB
0
ENDSEC
0
SECTION
2
BLOCKS
0
BLOCK
5
20
100
AcDbEntity
100
AcDbBlockBegin
2
*MODEL_SPACE
0
ENDBLK
5
21
100
AcDbEntity
100
AcDbBlockEnd
0
BLOCK
5
1C
100
AcDbEntity
100
AcDbBlockBegin
2
*PAPER_SPACE
0
ENDBLK
5
1D
100
AcDbEntity
100
AcDbBlockEnd
0
ENDSEC
0
SECTION
2
ENTITIES
0
LWPOLYLINE
5
100
100
AcDbEntity
8
0
100
AcDbPolyline
90
25
70
1
43
0.0
10
-579.56066017177977
20
-608.06066169765597
42
0.19891236737965801
10
-579.99999999999989
20
-609.12132186943586
10
-579.99999999999989
20
-638.4999999999992
42
0.41421356237309503
10
-578.5
20
-639.9999999999992
10
-558.50000000000125
20
-639.9999999999992
10
-558.50000000000125
20
-659.37867965641681
42
0.19891236737964935
10
-558.06066017178102
20
-660.43933982819669
10
-554.93933982822136
20
-663.56066017175635
42
0.19891236737965801
10
-553.87867965644159
20
-663.99999999997647
10
-470.221320343554
20
-663.99999999997647
42
0.19891236737871784
10
-469.16066017177803
20
-663.56066017176022
10
-467.0393398282215
20
-661.43933982821909
42
0.19891236738058948
10
-466.59999999999752
20
-660.37867965643545
10
-466.59999999999752
20
-628.49999999997647
42
0.41421356237309503
10
-468.09999999999752
20
-626.99999999997647
10
-513.2573593129307
20
-626.99999999997658
42
-0.19891236737961887
10
-515.37867965649002
20
-626.12132034353647
10
-529.06066017181138
20
-612.43933982821932
42
0.19891236737961449
10
-530.12132034359092
20
-611.99999999999932
10
-539.60710678118585
20
-611.9999999999992
42
-0.19891236737965362
10
-541.72842712474539
20
-611.12132034355898
10
-546.91040764008505
20
-605.93933982821943
42
0.19891236737964935
10
-547.97106781186483
20
-605.49999999999932
10
-576.37867965644034
20
-605.49999999999932
42
0.19891236737965801
10
-577.43933982822011
20
-605.93934135409643
0
LWPOLYLINE
5
101
100
AcDbEntity
8
0
100
AcDbPolyline
90
6
70
1
43
0.0
10
-523.70000000001255
20
-632.69999999998799
10
-489.00000000001256
20
-632.69999999998799
10
-489.00000000001256
20
-637.99999999998795
10
-523.70000000001255
20
-637.99999999998806
42
-0.41421356237309503
10
-526.00000000001262
20
-635.69999999998799
10
-526.00000000001262
20
-634.99999999998795
42
-0.41421356237309503
0
LWPOLYLINE
5
102
100
AcDbEntity
8
0
100
AcDbPolyline
90
16
70
1
43
0.0
10
-475.78856217223142
20
-640.99999999998795
42
0.18267581368155431
10
-476.11928108611443
20
-641.12499999998795
42
-0.93922053388447779
10
-476.82499999999754
20
-640.41928108610489
42
0.18267581368157865
10
-476.69999999999754
20
-640.08856217222183
10
-476.69999999999754
20
-630.9114378277427
42
0.18267581368157865
10
-476.82499999999754
20
-630.58071891385964
42
-0.93922053388443305
10
-476.11928108611448
20
-629.87499999997658
42
0.18267581368160618
10
-475.78856217223142
20
-629.99999999997658
10
-472.51143782776364
20
-629.99999999997658
42
0.18267581368157865
10
-472.18071891388064
20
-629.87499999997658
42
-0.93922053388448368
10
-471.47499999999752
20
-630.58071891385964
42
0.18267581368160288
10
-471.59999999999752
20
-630.9114378277427
10
-471.59999999999752
20
-640.08856217222183
42
0.18267581368160288
10
-471.47499999999741
20
-640.41928108610477
42
-0.93922053388438875
10
-472.18071891388064
20
-641.12499999998806
42
0.18267581368160288
10
-472.51143782776364
20
-640.99999999998795
0
LWPOLYLINE
5
103
100
AcDbEntity
8
0
100
AcDbPolyline
90
4
70
1
43
0.0
10
-567.44999999999993
20
-630.4999999999992
42
0.99999999999999989
10
-572.54999999999995
20
-630.49999999999932
10
-572.54999999999995
20
-631.49999999999932
42
0.99999999999999989
10
-567.44999999999993
20
-631.4999999999992
0
LWPOLYLINE
5
104
100
AcDbEntity
8
0
100
AcDbPolyline
90
4
70
1
43
0.0
10
-572.54999999999995
20
-614.59999999999923
10
-572.54999999999984
20
-613.59999999999923
42
-0.99999999999999989
10
-567.44999999999993
20
-613.59999999999923
10
-567.45000000000005
20
-614.59999999999923
42
-0.99999999999999989
0
CIRCLE
5
105
100
AcDbEntity
8
0
100
AcDbCircle
10
-485.50000000001262
20
-635.49999999998795
30
0
40
1.25
210
-1.2446030555722281e-60
220
-1.2272733663244316e-91
230
1
0
CIRCLE
5
106
100
AcDbEntity
8
0
100
AcDbCircle
10
-537.50000000001262
20
-642.99999999998863
30
0
40
6.5150000000000041
210
0
220
0
230
1
0
CIRCLE
5
107
100
AcDbEntity
8
0
100
AcDbCircle
10
-553.00000000001251
20
-658.49999999998818
30
0
40
1.5500000000000025
210
0
220
0
230
1
0
CIRCLE
5
108
100
AcDbEntity
8
0
100
AcDbCircle
10
-522.00000000001307
20
-658.49999999998863
30
0
40
1.549999999999998
210
0
220
0
230
1
0
CIRCLE
5
109
100
AcDbEntity
8
0
100
AcDbCircle
10
-522.00000000001262
20
-627.49999999998909
30
0
40
1.549999999999998
210
0
220
0
230
1
0
CIRCLE
5
110
100
AcDbEntity
8
0
100
AcDbCircle
10
-553.00000000001216
20
-627.49999999998863
30
0
40
1.5500000000000025
210
0
220
0
230
1
0
CIRCLE
5
111
100
AcDbEntity
8
0
100
AcDbCircle
10
-472.59999999999758
20
-653.99999999999807
30
0
40
2.5499999999999989
210
0
220
0
230
1
0
CIRCLE
5
112
100
AcDbEntity
8
0
100
AcDbCircle
10
-488.99999999999727
20
-653.99999999999807
30
0
40
2.5499999999999998
210
0
220
0
230
1
0
CIRCLE
5
113
100
AcDbEntity
8
0
100
AcDbCircle
10
-537.50000000001262
20
-622.2599999999984
30
0
40
6.5150000000000041
210
0
220
0
230
1
0
CIRCLE
5
114
100
AcDbEntity
8
0
100
AcDbCircle
10
-546.13437316777083
20
-627.49999999998863
30
0
40
1.2500000000000089
210
0
220
0
230
1
0
CIRCLE
5
115
100
AcDbEntity
8
0
100
AcDbCircle
10
-528.86562683225429
20
-617.02000000000817
30
0
40
1.2500000000000089
210
0
220
0
230
1
0
CIRCLE
5
116
100
AcDbEntity
8
0
100
AcDbCircle
10
-537.50000000001262
20
-652.09999999998877
30
0
40
1.2500000000000044
210
0
220
0
230
1
0
CIRCLE
5
117
100
AcDbEntity
8
0
100
AcDbCircle
10
-537.50000000001262
20
-633.89999999998838
30
0
40
1.2500000000000044
210
0
220
0
230
1
0
ENDSEC
0
SECTION
2
OBJECTS
0
DICTIONARY
5
C
100
AcDbDictionary
3
ACAD_GROUP
350
D
3
ACAD_MLINESTYLE
350
17
0
DICTIONARY
5
D
100
AcDbDictionary
0
DICTIONARY
5
1A
330
C
100
AcDbDictionary
0
DICTIONARY
5
17
100
AcDbDictionary
0
ENDSEC
0
EOF
