0
SECTION
2
HEADER
9
$INSUNITS
70
4
9
$ACADVER
1
AC1014
9
$HANDSEED
5
FFFF
0
ENDSEC
0
SECTION
2
TABLES
0
TABLE
2
VPORT
5
8
100
AcDbSymbolTable
0
ENDTAB
0
TABLE
2
LTYPE
5
5
100
AcDbSymbolTable
0
LTYPE
5
14
100
AcDbSymbolTableRecord
100
AcDbLinetypeTableRecord
2
BYBLOCK
70
0
0
LTYPE
5
15
100
AcDbSymbolTableRecord
100
AcDbLinetypeTableRecord
2
BYLAYER
70
0
0
ENDTAB
0
TABLE
2
LAYER
5
2
100
AcDbSymbolTable
70
2
0
LAYER
5
50
100
AcDbSymbolTableRecord
100
AcDbLayerTableRecord
2
0
70
0
6
CONTINUOUS
0
ENDTAB
0
TABLE
2
STYLE
5
3
100
AcDbSymbolTable
70
1
0
STYLE
5
11
100
AcDbSymbolTableRecord
100
AcDbTextStyleTableRecord
2
STANDARD
70
0
0
ENDTAB
0
TABLE
2
VIEW
5
6
100
AcDbSymbolTable
70
0
0
ENDTAB
0
TABLE
2
UCS
5
7
100
AcDbSymbolTable
70
0
0
ENDTAB
0
TABLE
2
APPID
5
9
100
AcDbSymbolTable
70
2
0
APPID
5
12
100
AcDbSymbolTableRecord
100
AcDbRegAppTableRecord
2
ACAD
70
0
0
ENDTAB
0
TABLE
2
DIMSTYLE
5
A
100
AcDbSymbolTable
70
1
0
ENDTAB
0
TABLE
2
BLOCK_RECORD
5
1
100
AcDbSymbolTable
70
1
0
BLOCK_RECORD
5
1F
100
AcDbSymbolTableRecord
100
AcDbBlockTableRecord
2
*MODEL_SPACE
0
BLOCK_RECORD
5
1B
100
AcDbSymbolTableRecord
100
AcDbBlockTableRecord
2
*PAPER_SPACE
0
ENDTAB
0
ENDSEC
0
SECTION
2
BLOCKS
0
BLOCK
5
20
100
AcDbEntity
100
AcDbBlockBegin
2
*MODEL_SPACE
0
ENDBLK
5
21
100
AcDbEntity
100
AcDbBlockEnd
0
BLOCK
5
1C
100
AcDbEntity
100
AcDbBlockBegin
2
*PAPER_SPACE
0
ENDBLK
5
1D
100
AcDbEntity
100
AcDbBlockEnd
0
ENDSEC
0
SECTION
2
ENTITIES
0
LWPOLYLINE
5
100
100
AcDbEntity
8
0
100
AcDbPolyline
90
25
70
1
43
0.0
10
-704.56066017177977
20
-608.06066169765677
42
0.19891236737966672
10
-705
20
-609.12132186943654
10
-705
20
-638.5
42
0.41421356237309503
10
-703.5
20
-640
10
-683.50000000000125
20
-640
10
-683.50000000000125
20
-659.3786796564176
42
0.19891236737965803
10
-683.06066017178091
20
-660.43933982819738
10
-679.93933982822136
20
-663.56066017175704
42
0.19891236737967544
10
-678.87867965644148
20
-663.99999999997726
10
-595.221320343554
20
-663.99999999997726
42
0.1989123673787179
10
-594.16066017177809
20
-663.5606601717609
10
-592.0393398282215
20
-661.43933982821977
42
0.19891236738058948
10
-591.59999999999752
20
-660.37867965643613
10
-591.59999999999752
20
-628.49999999997726
42
0.41421356237309503
10
-593.09999999999752
20
-626.99999999997726
10
-638.2573593129307
20
-626.99999999997726
42
-0.19891236737961876
10
-640.37867965649002
20
-626.12132034353726
10
-654.06066017181138
20
-612.43933982822
42
0.19891236737961449
10
-655.12132034359092
20
-612
10
-664.60710678118585
20
-612
42
-0.19891236737965362
10
-666.72842712474551
20
-611.12132034355966
10
-671.91040764008505
20
-605.93933982822011
42
0.19891236737964935
10
-672.97106781186483
20
-605.5
10
-701.37867965644034
20
-605.5
42
0.19891236737965801
10
-702.43933982822011
20
-605.93934135409711
0
LWPOLYLINE
5
101
100
AcDbEntity
8
0
100
AcDbPolyline
90
6
70
1
43
0.0
10
-648.70000000001255
20
-632.69999999998868
10
-614.00000000001251
20
-632.69999999998868
10
-614.00000000001251
20
-637.99999999998875
10
-648.70000000001255
20
-637.99999999998875
42
-0.41421356237309503
10
-651.00000000001262
20
-635.69999999998868
10
-651.00000000001251
20
-634.99999999998875
42
-0.41421356237309503
0
LWPOLYLINE
5
102
100
AcDbEntity
8
0
100
AcDbPolyline
90
16
70
1
43
0.0
10
-600.78856217223142
20
-640.99999999998875
42
0.18267581368160288
10
-601.11928108611448
20
-641.12499999998863
42
-0.93922053388438875
10
-601.82499999999754
20
-640.41928108610568
42
0.18267581368157865
10
-601.69999999999754
20
-640.08856217222262
10
-601.69999999999754
20
-630.9114378277435
42
0.18267581368160618
10
-601.82499999999766
20
-630.58071891386032
42
-0.93922053388438875
10
-601.11928108611448
20
-629.87499999997726
42
0.18267581368160288
10
-600.78856217223142
20
-629.99999999997726
10
-597.51143782776364
20
-629.99999999997726
42
0.18267581368157865
10
-597.18071891388058
20
-629.87499999997726
42
-0.93922053388443305
10
-596.47499999999752
20
-630.58071891386032
42
0.18267581368160618
10
-596.59999999999752
20
-630.9114378277435
10
-596.59999999999752
20
-640.08856217222262
42
0.18267581368157865
10
-596.47499999999741
20
-640.41928108610546
42
-0.93922053388438875
10
-597.18071891388058
20
-641.12499999998875
42
0.18267581368160288
10
-597.51143782776364
20
-640.99999999998875
0
LWPOLYLINE
5
103
100
AcDbEntity
8
0
100
AcDbPolyline
90
4
70
1
43
0.0
10
-692.45000000000005
20
-630.5
42
0.99999999999999989
10
-697.54999999999995
20
-630.5
10
-697.54999999999995
20
-631.5
42
0.99999999999999989
10
-692.45000000000005
20
-631.49999999999989
0
LWPOLYLINE
5
104
100
AcDbEntity
8
0
100
AcDbPolyline
90
4
70
1
43
0.0
10
-697.54999999999995
20
-614.59999999999991
10
-697.54999999999995
20
-613.60000000000002
42
-0.99999999999999989
10
-692.45000000000005
20
-613.60000000000002
10
-692.45000000000005
20
-614.59999999999991
42
-0.99999999999999989
0
CIRCLE
5
105
100
AcDbEntity
8
0
100
AcDbCircle
10
-610.50000000001262
20
-635.49999999998863
30
0
40
1.25
210
1.1210387714598696e-44
220
-1.3929669041753274e-36
230
1
0
CIRCLE
5
106
100
AcDbEntity
8
0
100
AcDbCircle
10
-662.50000000001262
20
-642.99999999998931
30
0
40
6.5150000000000041
210
1.1210387714598696e-44
220
-1.3929669041753274e-36
230
1
0
CIRCLE
5
107
100
AcDbEntity
8
0
100
AcDbCircle
10
-678.00000000001262
20
-658.49999999998886
30
0
40
1.5500000000000025
210
1.1210387714598696e-44
220
-1.3929669041753274e-36
230
1
0
CIRCLE
5
108
100
AcDbEntity
8
0
100
AcDbCircle
10
-647.00000000001296
20
-658.49999999998931
30
0
40
1.549999999999998
210
1.1210387714598696e-44
220
-1.3929669041753274e-36
230
1
0
CIRCLE
5
109
100
AcDbEntity
8
0
100
AcDbCircle
10
-647.00000000001273
20
-627.49999999998977
30
0
40
1.549999999999998
210
1.1210387714598696e-44
220
-1.3929669041753274e-36
230
1
0
CIRCLE
5
110
100
AcDbEntity
8
0
100
AcDbCircle
10
-678.00000000001205
20
-627.49999999998931
30
0
40
1.5500000000000025
210
1.1210387714598696e-44
220
-1.3929669041753274e-36
230
1
0
CIRCLE
5
111
100
AcDbEntity
8
0
100
AcDbCircle
10
-597.59999999999752
20
-653.99999999999875
30
0
40
2.5499999999999989
210
1.1210387714598696e-44
220
-1.3929669041753274e-36
230
1
0
CIRCLE
5
112
100
AcDbEntity
8
0
100
AcDbCircle
10
-613.99999999999727
20
-653.99999999999875
30
0
40
2.5499999999999998
210
1.1210387714598696e-44
220
-1.3929669041753274e-36
230
1
0
CIRCLE
5
113
100
AcDbEntity
8
0
100
AcDbCircle
10
-662.50000000001262
20
-622.25999999999908
30
0
40
6.5150000000000041
210
1.1210387714598696e-44
220
-1.3929669041753274e-36
230
1
0
CIRCLE
5
114
100
AcDbEntity
8
0
100
AcDbCircle
10
-671.13437316777083
20
-627.49999999998931
30
0
40
1.2500000000000089
210
1.1210387714598696e-44
220
-1.3929669041753274e-36
230
1
0
CIRCLE
5
115
100
AcDbEntity
8
0
100
AcDbCircle
10
-653.86562683225429
20
-617.02000000000896
30
0
40
1.2500000000000089
210
1.1210387714598696e-44
220
-1.3929669041753274e-36
230
1
0
CIRCLE
5
116
100
AcDbEntity
8
0
100
AcDbCircle
10
-662.50000000001239
20
-652.59999999998956
30
0
40
1.2500000000000044
210
1.1210387714598696e-44
220
-1.3929669041753274e-36
230
1
0
CIRCLE
5
117
100
AcDbEntity
8
0
100
AcDbCircle
10
-662.50000000001239
20
-633.39999999998918
30
0
40
1.2500000000000044
210
1.1210387714598696e-44
220
-1.3929669041753274e-36
230
1
0
ENDSEC
0
SECTION
2
OBJECTS
0
DICTIONARY
5
C
100
AcDbDictionary
3
ACAD_GROUP
350
D
3
ACAD_MLINESTYLE
350
17
0
DICTIONARY
5
D
100
AcDbDictionary
0
DICTIONARY
5
1A
330
C
100
AcDbDictionary
0
DICTIONARY
5
17
100
AcDbDictionary
0
ENDSEC
0
EOF
