0
SECTION
2
HEADER
9
$INSUNITS
70
4
9
$ACADVER
1
AC1014
9
$HANDSEED
5
FFFF
0
ENDSEC
0
SECTION
2
TABLES
0
TABLE
2
VPORT
5
8
100
AcDbSymbolTable
0
ENDTAB
0
TABLE
2
LTYPE
5
5
100
AcDbSymbolTable
0
LTYPE
5
14
100
AcDbSymbolTableRecord
100
AcDbLinetypeTableRecord
2
BYBLOCK
70
0
0
LTYPE
5
15
100
AcDbSymbolTableRecord
100
AcDbLinetypeTableRecord
2
BYLAYER
70
0
0
ENDTAB
0
TABLE
2
LAYER
5
2
100
AcDbSymbolTable
70
2
0
LAYER
5
50
100
AcDbSymbolTableRecord
100
AcDbLayerTableRecord
2
0
70
0
6
CONTINUOUS
0
ENDTAB
0
TABLE
2
STYLE
5
3
100
AcDbSymbolTable
70
1
0
STYLE
5
11
100
AcDbSymbolTableRecord
100
AcDbTextStyleTableRecord
2
STANDARD
70
0
0
ENDTAB
0
TABLE
2
VIEW
5
6
100
AcDbSymbolTable
70
0
0
ENDTAB
0
TABLE
2
UCS
5
7
100
AcDbSymbolTable
70
0
0
ENDTAB
0
TABLE
2
APPID
5
9
100
AcDbSymbolTable
70
2
0
APPID
5
12
100
AcDbSymbolTableRecord
100
AcDbRegAppTableRecord
2
ACAD
70
0
0
ENDTAB
0
TABLE
2
DIMSTYLE
5
A
100
AcDbSymbolTable
70
1
0
ENDTAB
0
TABLE
2
BLOCK_RECORD
5
1
100
AcDbSymbolTable
70
1
0
BLOCK_RECORD
5
1F
100
AcDbSymbolTableRecord
100
AcDbBlockTableRecord
2
*MODEL_SPACE
0
BLOCK_RECORD
5
1B
100
AcDbSymbolTableRecord
100
AcDbBlockTableRecord
2
*PAPER_SPACE
0
ENDTAB
0
ENDSEC
0
SECTION
2
BLOCKS
0
BLOCK
5
20
100
AcDbEntity
100
AcDbBlockBegin
2
*MODEL_SPACE
0
ENDBLK
5
21
100
AcDbEntity
100
AcDbBlockEnd
0
BLOCK
5
1C
100
AcDbEntity
100
AcDbBlockBegin
2
*PAPER_SPACE
0
ENDBLK
5
1D
100
AcDbEntity
100
AcDbBlockEnd
0
ENDSEC
0
SECTION
2
ENTITIES
0
LWPOLYLINE
5
100
100
AcDbEntity
8
0
100
AcDbPolyline
90
18
70
1
43
0.0
10
-172.57678268764266
20
-464.90000762939451
42
0.1395991324168597
10
-172.31339134382128
20
-464.82500762939452
42
-0.9863174308063769
10
-171.77499999999998
20
-465.66758995660678
42
0.25226365250225652
10
-172
20
-466.08517228381908
10
-172
20
-468.50000762939368
42
0.41421356237309503
10
-171.5
20
-469.00000762939374
10
-171.30000000000001
20
-469.00000762939374
42
-0.41421356237309503
10
-170.80000000000001
20
-469.50000762939368
10
-170.80000000000007
20
-471.50000762939453
42
-0.41421356237309503
10
-171.30000000000001
20
-472.00000762939453
10
-174.08856217223385
20
-472.00000762939453
42
0.18267581368161667
10
-174.419281086117
20
-472.12500762939447
42
-0.93922053388438875
10
-175.12500000000003
20
-471.41928871551147
42
0.18267581368161828
10
-175
20
-471.08856980162835
10
-175
20
-465.91144545716071
42
0.18267581368161828
10
-175.12500000000011
20
-465.58072654327759
42
-0.86316125674454036
10
-174.48660865617867
20
-464.82500762939452
42
0.1395991324168597
10
-174.22321731235735
20
-464.90000762939451
0
LWPOLYLINE
5
101
100
AcDbEntity
8
0
100
AcDbPolyline
90
18
70
1
43
0.0
10
-174.22321731235735
20
-460.10000762939455
42
0.13959913241687871
10
-174.4866086561787
20
-460.17500762939449
42
-0.86316125674458666
10
-175.12500000000003
20
-459.41928871551141
42
0.18267581368161828
10
-175
20
-459.0885698016283
10
-175
20
-453.91144545716077
42
0.18267581368161828
10
-175.12500000000003
20
-453.58072654327765
42
-0.93922053388448368
10
-174.41928108611691
20
-452.87500762939453
42
0.18267581368159241
10
-174.08856217223385
20
-453.00000762939453
10
-171.30000000000001
20
-453.00000762939447
42
-0.41421356237309503
10
-170.80000000000001
20
-453.50000762939453
10
-170.80000000000007
20
-455.50000762939538
42
-0.41421356237309503
10
-171.30000000000001
20
-456.00000762939538
10
-171.5
20
-456.00000762939538
42
0.41421356237309503
10
-172
20
-456.50000762939533
10
-172
20
-458.91484297497004
42
0.25226365250223576
10
-171.77499999999998
20
-459.33242530218223
42
-0.98631743080641876
10
-172.31339134382131
20
-460.17500762939454
42
0.13959913241687871
10
-172.57678268764266
20
-460.10000762939455
0
LWPOLYLINE
5
102
100
AcDbEntity
8
0
100
AcDbPolyline
90
24
70
1
43
0.0
10
-154.37132034457136
20
-488.50000762939453
42
0.19891236737966017
10
-153.31066017279153
20
-488.0606678011743
10
-151.18933982923193
20
-485.93934745761476
42
0.19891236737965801
10
-150.75000000101173
20
-484.87868728583493
10
-150.75000000101173
20
-444.27472625515583
42
0.19891236737967105
10
-151.18933982923195
20
-443.214066083376
10
-154.70405845499363
20
-439.69934745761464
42
0.19891236737964413
10
-155.7647186267734
20
-439.26000762939452
10
-165.98842712474612
20
-439.26000762939441
42
0.19891236737967291
10
-167.04908729652604
20
-439.69934745761464
10
-170.47106781186559
20
-443.12132797295465
42
-0.19891236737967105
10
-172.5923881554254
20
-444.0000076293951
10
-174.87867965644031
20
-444.0000076293951
42
0.19891236737966672
10
-175.9393398282202
20
-444.43934745761533
10
-178.06066017177986
20
-446.56066780117521
42
0.19891236737964058
10
-178.5
20
-447.62132797295493
10
-178.5
20
-477.37868728583493
42
0.19891236737965362
10
-178.06066017177983
20
-478.43934745761476
10
-175.9393398282202
20
-480.5606678011743
42
0.19891236737965801
10
-174.8786796564404
20
-481.00000762939453
10
-174.59238815542471
20
-481.00000762939453
42
-0.19891236737964924
10
-172.47106781186511
20
-481.87868728583481
10
-166.28908729652528
20
-488.0606678011743
42
0.19891236737965801
10
-165.22842712474551
20
-488.50000762939453
0
LWPOLYLINE
5
103
100
AcDbEntity
8
0
100
AcDbPolyline
90
4
70
1
43
0.0
10
-158.00000000000009
20
-481.05000762939454
42
0.99999999999999989
10
-158.00000000000003
20
-475.95000762939446
10
-159.00000000000003
20
-475.95000762939458
42
0.99999999999999989
10
-159.00000000000009
20
-481.05000762939454
0
CIRCLE
5
104
100
AcDbEntity
8
0
100
AcDbCircle
10
-156.06532829211287
20
-453.56533592287059
30
4.7683716308810631e-07
40
1.2500000000000044
210
-1.5191622598641553e-58
220
5.6051938572992683e-45
230
1
0
CIRCLE
5
105
100
AcDbEntity
8
0
100
AcDbCircle
10
-168.9346717097053
20
-466.43467934046896
30
4.7683716308810631e-07
40
1.2500000000000089
210
-1.5191622598641553e-58
220
5.6051938572992683e-45
230
1
0
CIRCLE
5
106
100
AcDbEntity
8
0
100
AcDbCircle
10
-162.50000000090915
20
-460.0000076316698
30
4.7683716308810631e-07
40
6.5149999999999952
210
-1.5191622598641553e-58
220
5.6051938572992683e-45
230
1
0
CIRCLE
5
107
100
AcDbEntity
8
0
100
AcDbCircle
10
-158.25000000101173
20
-446.76000762939458
30
4.7683716308810631e-07
40
1.549999999999998
210
-1.5191622598641553e-58
220
5.6051938572992683e-45
230
1
0
CIRCLE
5
108
100
AcDbEntity
8
0
100
AcDbCircle
10
-173.40000000000001
20
-449.00000762939453
30
4.7683716308810631e-07
40
1.5499999999999936
210
-1.5191622598641553e-58
220
5.6051938572992683e-45
230
1
0
CIRCLE
5
109
100
AcDbEntity
8
0
100
AcDbCircle
10
-173.40000000000001
20
-476.00000762939453
30
4.7683716308810631e-07
40
1.5499999999999936
210
-1.5191622598641553e-58
220
5.6051938572992683e-45
230
1
0
ENDSEC
0
SECTION
2
OBJECTS
0
DICTIONARY
5
C
100
AcDbDictionary
3
ACAD_GROUP
350
D
3
ACAD_MLINESTYLE
350
17
0
DICTIONARY
5
D
100
AcDbDictionary
0
DICTIONARY
5
1A
330
C
100
AcDbDictionary
0
DICTIONARY
5
17
100
AcDbDictionary
0
ENDSEC
0
EOF
